<svg xmlns="http://www.w3.org/2000/svg" xmlns:xlink="http://www.w3.org/1999/xlink" width="88" height="88" viewBox="0 0 88 88"><defs><style>.a{fill:#14aeb8;}.b{fill:#fff;}.c{filter:url(#a);}</style><filter id="a" x="0" y="0" width="88" height="88" filterUnits="userSpaceOnUse"><feOffset input="SourceAlpha"/><feGaussianBlur stdDeviation="4" result="b"/><feFlood flood-color="#030303" flood-opacity="0.431"/><feComposite operator="in" in2="b"/><feComposite in="SourceGraphic"/></filter></defs><g transform="translate(10366 4919)"><g class="c" transform="matrix(1, 0, 0, 1, -10366, -4919)"><circle class="a" cx="32" cy="32" r="32" transform="translate(12 12)"/></g><g transform="translate(-10301.096 -4889.772) rotate(90)"><g transform="translate(0 7.974)"><path class="b" d="M27.889,18.615a2.121,2.121,0,0,0-.367-.027H6.588l.456-.212a4.246,4.246,0,0,0,1.2-.849l5.87-5.87a2.2,2.2,0,0,0,.308-2.813,2.123,2.123,0,0,0-3.185-.276L.623,19.182a2.123,2.123,0,0,0,0,3l0,0L11.238,32.8a2.123,2.123,0,0,0,3.185-.212,2.2,2.2,0,0,0-.308-2.813L8.255,23.9a4.246,4.246,0,0,0-1.062-.775l-.637-.287H27.4a2.2,2.2,0,0,0,2.24-1.783A2.123,2.123,0,0,0,27.889,18.615Z" transform="translate(0 -7.974)"/></g></g></g></svg>