<svg xmlns="http://www.w3.org/2000/svg" width="30" height="22.8" viewBox="0 0 30 22.8"><defs><style>.a{fill:#14aeb8;}</style></defs><path class="a" d="M27.363,2.383H2.637A2.638,2.638,0,0,0,0,5.014V22.552a2.638,2.638,0,0,0,2.637,2.631H27.363A2.638,2.638,0,0,0,30,22.552V5.014A2.638,2.638,0,0,0,27.363,2.383ZM27,4.137,15.056,16.053,3.009,4.137ZM1.758,22.189V5.368l8.466,8.374ZM3,23.429l8.471-8.452,2.968,2.936a.88.88,0,0,0,1.24,0l2.894-2.888L27,23.429Zm25.241-1.24-8.425-8.406,8.425-8.406Z" transform="translate(0 -2.383)"/></svg>