<svg xmlns="http://www.w3.org/2000/svg" width="30.247" height="27.242" viewBox="0 0 30.247 27.242"><defs><style>.a{fill:#14aeb8;stroke:#14aeb8;stroke-width:0.2px;}</style></defs><path class="a" d="M28.545,4.507h-6.51v-2A2.507,2.507,0,0,0,19.53,0H10.516a2.507,2.507,0,0,0-2.5,2.5v2H1.5A1.5,1.5,0,0,0,0,6.009V17.157A1.509,1.509,0,0,0,1,18.57V25.54a1.5,1.5,0,0,0,1.5,1.5H27.543a1.5,1.5,0,0,0,1.5-1.5V18.571a1.509,1.509,0,0,0,1-1.414V6.009a1.5,1.5,0,0,0-1.5-1.5Zm-19.53-2a1.5,1.5,0,0,1,1.5-1.5H19.53a1.5,1.5,0,0,1,1.5,1.5v2h-1v-2a.5.5,0,0,0-.5-.5H10.516a.5.5,0,0,0-.5.5v2h-1Zm10.016,2H11.017V3H19.03ZM28.044,25.54a.5.5,0,0,1-.5.5H2.5a.5.5,0,0,1-.5-.5v-6.8L13.02,20.262v1.272a1.5,1.5,0,0,0,1.5,1.5h1a1.5,1.5,0,0,0,1.5-1.5V20.262l11.017-1.519ZM16.025,21.534a.5.5,0,0,1-.5.5h-1a.5.5,0,0,1-.5-.5v-3a.5.5,0,0,1,.5-.5h1a.5.5,0,0,1,.5.5Zm13.02-4.377a.5.5,0,0,1-.431.5l-.139.019L17.027,19.251v-.722a1.5,1.5,0,0,0-1.5-1.5h-1a1.5,1.5,0,0,0-1.5,1.5v.722l-11.588-1.6a.5.5,0,0,1-.431-.5V6.009a.5.5,0,0,1,.5-.5H28.545a.5.5,0,0,1,.5.5Zm0,0" transform="translate(0.1 0.1)"/></svg>