<svg xmlns="http://www.w3.org/2000/svg" xmlns:xlink="http://www.w3.org/1999/xlink" width="366.218" height="380.958" viewBox="0 0 366.218 380.958"><defs><style>.a{opacity:0.2;}.b,.i,.l{isolation:isolate;}.c{fill:#1b39af;}.d{stroke:rgba(0,0,0,0);stroke-miterlimit:10;fill:url(#a);}.e{fill:url(#b);}.f{fill:url(#c);}.g{fill:#ffb294;}.h{fill:#e19dd0;}.i{fill:#0a0a0a;opacity:0.12;}.i,.l{mix-blend-mode:multiply;}.j{fill:#110239;}.k{fill:#01c7e2;}.l{fill:#227fbc;opacity:0.5;}</style><linearGradient id="a" x1="0.5" x2="0.5" y2="1" gradientUnits="objectBoundingBox"><stop offset="0" stop-color="#40d5e6"/><stop offset="1" stop-color="#57f"/></linearGradient><linearGradient id="b" x1="0.5" x2="0.5" y2="1" gradientUnits="objectBoundingBox"><stop offset="0" stop-color="#1b39af"/><stop offset="1" stop-color="#40d5e6"/></linearGradient><linearGradient id="c" x1="0.141" y1="0.457" x2="1.057" y2="1.323" xlink:href="#b"/></defs><g transform="translate(0 0.958)"><path class="a" d="M37.848,235.216l.2-24.612L62.5,213.773l33.9,4.393L83.4,225.729l311.543,178.34-30.82,17.9L52.58,243.631l-14.864,8.634Z" transform="translate(-37.716 -42.602)"/><g transform="translate(0 0)"><g class="b" transform="translate(0)"><g transform="translate(0)"><path class="c" d="M135.574,233.186l58.69-34.107,5.005-3.581-57.886-40.9-5.005,3.582Z" transform="translate(-135.574 -154.595)"/><path class="c" d="M135.574,233.186l58.69-34.107,5.005-3.581-57.886-40.9-5.005,3.582Z" transform="translate(-135.574 -154.595)"/></g><g transform="translate(13.78 43.68)"><path d="M144.874,187.063l30.811-17.906-4.4,2.506-30.811,17.905Z" transform="translate(-140.477 -169.157)"/></g><path class="d" d="M204.768,305.521l30.81-17.906L352.22,354.957l-30.811,17.906ZM144.342,200.875l30.81-17.906,60.426,104.645-30.81,17.906ZM68.213,156.922l30.811-17.906,76.128,43.952-30.811,17.906ZM15.666,65.905,0,75.009.8,0,58.69,40.9,46.477,48l52.548,91.017L68.213,156.922Z" transform="translate(5.006 0)"/><g transform="translate(326.394 354.958)"><path class="e" d="M37.717,297.973l30.811-17.905.02-7.136L37.737,290.837Z" transform="translate(-37.717 -272.931)"/></g><g transform="translate(13.78 61.585)"><path class="f" d="M52.385,175.127l-4.4,2.505,56.851,98.486,76.128,43.953L241.38,424.708,360.6,493.541l.02-7.136L243.982,419.062,183.556,314.416l-76.128-43.952Z" transform="translate(-47.989 -175.127)"/></g></g></g><g transform="translate(196.967 48.655)"><g transform="translate(0)"><path class="g" d="M36.229,224.093v6.417l1.962,3.924,3.775,2.948c1.282.748,2.261.316,1.547-1.143l-1.547-2.258v-2.493l9.811.83,6.489,1.51c3.36.289,3.992-.282,2.568-1.51L52.3,226.81,41.966,224.4l-2.945-4-4.3,1.585Z" transform="translate(107.704 -94.211)"/><path class="h" d="M77.821,283.329c-1.537,3.05-3.768,4.339-7.237,2.578-1.734-3.343-3.445-6.516-5.081-9.563-6.121-11.4-11.273-21.166-12.811-31.5L40.8,221.9l-.32-.619.966-25.427c8.944,1.663,17.347,25.08,25.747,48.994C71.948,259.1,72.3,273.045,77.821,283.329Z" transform="translate(71.845 -153.134)"/><path class="i" d="M68.789,264.8C62.692,253.45,57.54,243.683,56,233.352L44.107,210.4l6.1-9.763c.918,10.233,4.213,24.186,9.74,32.712C64.848,246.584,65.668,256.272,68.789,264.8Z" transform="translate(68.536 -141.639)"/><path class="g" d="M78.575,251.785H70.2l-1.36,4.979c2.68,4.649,8.553,7.237,15.623,9.06l10.189,1.809,2.717-4.074-1.132-6.795c.082-.34.221-.677.32-1.017a33.819,33.819,0,0,1-12.78-5.924C82.483,250.891,80.408,252.057,78.575,251.785Z" transform="translate(-44.149 -23.565)"/><path class="j" d="M88.237,252.7c-1.489,1.714-7.24.592-9.692,2.132a2.9,2.9,0,0,0-.578,4.475,18.373,18.373,0,0,0,10.593,5.445c6.128.309,11.488-.292,15.171-2.867,2.792,3.394,1.969,10.114,1.129,12.454-2.34,2.829-4.883,3.846-9.131,2.714s-5.543-5.509-9.661-7.924-9.342-1.255-12.226-4c-3.095-2.942-4.3-6.5-5.207-11.093-.585-2.248-.109-3.652,3.649-4.683S88.237,252.7,88.237,252.7Z" transform="translate(-51.039 -25.064)"/><path class="g" d="M42.608,231.416c1.813,30.848,7.675,60.009,21.054,86.035,2.571,5.683,5.931,13.069,11.321,16.752,15.021,19.7,25.91,36.745,30.794,55.473-.558,6.186-2.156,11.039-5.21,14.038l-7.7,6.716c13.96,5.206,21.336-6.342,29.658-18.037-13.13-12-7.747-39.03-20.377-58.19-6.315-9.583-18.112-20.6-18.112-20.6V261.074c10.454-9.209,12.093-23.744,4.754-43.7Z" transform="translate(19.894 -101.456)"/><path class="k" d="M121.59,236.011l-40.074-16.3L70.647,262.952c-3.979,24.04-8.036,43.359-17.884,58.979-.071.065-.156.129-.235.19,0,7.193,17.344,20.666,22.877,14.263,4.533-15.49,16.045-38.958,19.921-59.621Z" transform="translate(-12.902 -95.863)"/><path class="j" d="M56.127,279.886l-9.865,1.561c-3.54.718-5.064,2.561-5.547,4.982,2.258,5.3,5.523,7.951,11.705,9.3,7.8-1.2,14.4-3.543,18.65-9.059,0,0,6.271-1.391,8.475-2.506a12.784,12.784,0,0,0,4-3.924c1.017-4.244-2.564-9.131-7.145-11.651l-1.949,3.237s-8.277,11.29-12.113,13.242c-6.227,3.173-10.981.908-10.981.908Z" transform="translate(65.143 21.487)"/><path class="k" d="M120.213,388.489c-4.533,1.19-15.834,9.1-23.666,6.618.173-1.438-1.711-13.7-6.815-27.93-.371-1.088-.769-2.2-1.214-3.319l-.248-.646C84.7,354.067,79.8,344.477,73.3,336.621c-4.162-5.03-6.121-13.48-8.7-19.156-13.256-25.771-19.129-54.643-20.989-85.171-.024-.3-.024-.571-.048-.867l.418-.126,4.635-1.411,41.111-12.515c7.359,19.972,5.7,34.5-4.73,43.713V313.6S96.8,324.627,103.091,334.22C114.514,351.516,111.27,375.206,120.213,388.489Z" transform="translate(18.945 -101.463)"/><path class="l" d="M97.616,354.377c-3.567-9.145-8.475-18.735-14.967-26.59-4.162-5.03-6.121-13.481-8.7-19.156-13.256-25.771-19.129-54.643-20.989-85.171.15-.371.272-.694.371-.993.323-.891.52-1.411.52-1.411H68.4c-6.543,27.012-.843,56.428,12.392,87.378Z" transform="translate(9.599 -92.629)"/><path class="h" d="M109.963,271.59c-6.465,10.2-16.932,15.47-31.688,15.48a88.219,88.219,0,0,1-20.411-2.69c-.789-12.834,1.836-23.6-.718-34.187a27.012,27.012,0,0,1-1.809-2.2c-2.707-3.649-7.329-11.454-5.309-20.176C51.8,220.15,65,216.3,65,216.3s11.746-12.933,21.057-16.752,25.873-3.7,25.873-3.7,5.6,3.751,5.6,20.829c0,18.864-12.753,29.035-12.906,36.752C104.477,260.915,109.646,270.974,109.963,271.59Z" transform="translate(1.35 -153.134)"/><path class="g" d="M94.3,233.029l-8.005-3.255-5.431-5.547L77.48,216.75c-.619-1.694-.014-2.561.891-1.275l2.037,3.118-2.261-6.026c-1.02-2.568.075-3.169,1.245-1.813l1.245,1.813-1.36-3.509c-.9-2.037.377-2.755,1.473-1.473l5.887,8.379-4.3-8.944c-.677-1.622.643-2.265,1.813-.9l7.811,12.477,3.057.979.9-6.1c.265-1.547,1.925-1.847,1.925.116a35.348,35.348,0,0,0,.68,7.356l-1.813,5.434,5.207,2.945L98.636,234.3Z" transform="translate(-77.228 -130.268)"/><path class="i" d="M84.019,259.569a87.63,87.63,0,0,1-20.421-2.68c-.789-12.834,1.836-23.6-.718-34.187a27.043,27.043,0,0,1-1.809-2.2L80.676,207.3c-6.339,11.739-8.012,22.686-5.349,33.582A57.911,57.911,0,0,0,84.019,259.569Z" transform="translate(-4.384 -125.643)"/><path class="h" d="M105.763,207.434a170.947,170.947,0,0,0-17.742,23.319c-8.971.456-16.755.779-21.394-1.472-2.765-.765-5.288,4.452-4.387,7.291,7.2,5.431,13.443,7.652,26.8,9.049C98.346,241.214,106,234.069,117.57,226,132.513,213.773,115.305,197.018,105.763,207.434Z" transform="translate(-47.144 -133.171)"/><path class="g" d="M56.426,200.254,59.8,214.39c6.461,5.132,24.179-.435,20.962-8.1l-5.3-12.521Z" transform="translate(14.279 -158.144)"/><path class="g" d="M56.426,200.254,59.8,214.39c6.461,5.132,24.179-.435,20.962-8.1l-5.3-12.521Z" transform="translate(14.279 -158.144)"/><path class="h" d="M58.185,204.853l-2.156,5.077c9.818,8.475,30.4-.973,24.72-13.263l-2.527-.384C78.014,204.982,68.485,208.325,58.185,204.853Z" transform="translate(15.061 -152.099)"/><path class="j" d="M61.128,191.937s-17.779,12.27,5.659,41.162c0,0,16.16,7.325,23.839-6.009s9.294-32.728-4.849-40S59.513,183.853,61.128,191.937Z" transform="translate(4.976 -183.291)"/></g></g></g></svg>