<svg xmlns="http://www.w3.org/2000/svg" xmlns:xlink="http://www.w3.org/1999/xlink" width="209.414" height="398.788" viewBox="0 0 209.414 398.788"><defs><style>.a{fill:url(#a);}.b{fill:#bae3fc;}.c{fill:#002139;}.c,.t{opacity:0.21;}.c,.h,.q,.s,.t,.w{mix-blend-mode:multiply;}.c,.h,.o,.q,.s,.t,.w{isolation:isolate;}.d{fill:#f2f2f2;}.e{fill:#ffbf99;}.f{fill:#ffcfb3;}.g{fill:#e19dd0;}.h{fill:#e6e6e6;}.i{fill:#9ee7ff;}.j{fill:#0098cc;}.k{fill:#851266;}.l{fill:#fff2cd;}.m{fill:#ad6991;}.n{fill:#c7f1ff;}.o{fill:#999;mix-blend-mode:screen;}.p{fill:#110239;}.q{fill:#666;}.r{fill:#01c7e2;}.s{opacity:0.18;}.u{fill:#fafafa;}.v{fill:#7c3b30;}.w{fill:#c75f4d;}</style><linearGradient id="a" x1="0.5" x2="0.5" y2="1" gradientUnits="objectBoundingBox"><stop offset="0" stop-color="#40d5e6"/><stop offset="1" stop-color="#57f"/></linearGradient></defs><g transform="translate(0 0)"><g transform="translate(0 0)"><g transform="translate(74.354)"><path class="a" d="M121.617,248.61c0-30.263-21.378-67.139-47.751-82.365-13.431-7.754-25.558-8.385-34.234-3.153l-6.971,3.955,2.1-.018c-5.444,5.757-8.649,14.741-8.649,26.441,0,30.262,21.379,67.138,47.751,82.365,10.409,6.009,20.033,7.732,27.877,5.774l-.42,1.24,6.411-3.622-.014,0C116.307,274.276,121.617,263.688,121.617,248.61Z" transform="translate(0.865 -147.422)"/><ellipse class="b" cx="67.321" cy="38.867" rx="67.321" ry="38.867" transform="translate(67.953 155.469) rotate(-120.311)"/><ellipse class="a" cx="52.805" cy="30.486" rx="52.805" ry="30.486" transform="matrix(-0.505, -0.863, 0.863, -0.505, 67.861, 138.707)"/><ellipse class="b" cx="39.014" cy="22.524" rx="39.014" ry="22.524" transform="matrix(-0.505, -0.863, 0.863, -0.505, 67.775, 122.782)"/><ellipse class="a" cx="25.949" cy="14.981" rx="25.949" ry="14.981" transform="translate(67.693 107.696) rotate(-120.311)"/><path class="b" d="M76.474,215.108c0,4.921-3.477,6.9-7.766,4.428s-7.766-8.473-7.766-13.394,3.478-6.9,7.766-4.428S76.474,210.188,76.474,215.108Z" transform="translate(-1.178 -132.891)"/><path class="c" d="M42.633,195.479c0,30.268,21.378,67.139,47.749,82.374,12.588,7.271,24.047,8.287,32.57,4.064L55.321,165.624C47.447,170.84,42.633,181.126,42.633,195.479Z" transform="translate(-22.851 -145.318)"/></g><g transform="translate(16.555 75.638)"><path class="d" d="M134.263,226.483s1-3.95-6.764-5.853L126.788,222l-.032,2.387,3.026,2.03,2.736.775Z" transform="translate(-104.203 -198.649)"/><path class="e" d="M135.7,226.307a7.821,7.821,0,0,1-4.191-6.383q-1.889,2.677-3.724,5.387a6.9,6.9,0,0,0-.965,1.776,6.735,6.735,0,0,0-.131,2.523,2.054,2.054,0,0,0,.236.951,2.013,2.013,0,0,0,.5.48,9.036,9.036,0,0,0,3.053,1.762,1.83,1.83,0,0,0,1.069.014c1.051-.385,1.341-2.021,1.785-2.9A19.238,19.238,0,0,1,135.7,226.307Z" transform="translate(-105.064 -201.141)"/><path class="f" d="M133.008,242.013a2.936,2.936,0,0,1-.308,1.264,1.333,1.333,0,0,1-1.028.716,1.833,1.833,0,0,1-1.423-.892,3.53,3.53,0,0,0-1.205-1.232,5.362,5.362,0,0,0-1.4-.231,3.637,3.637,0,0,1-2.3-1.518,7.133,7.133,0,0,1-1.087-2.582,23.786,23.786,0,0,1,.227-9.74,16.566,16.566,0,0,1,1.608-5.165,6.492,6.492,0,0,1,4.1-3.316,2.568,2.568,0,0,0,.752-.222,2.093,2.093,0,0,0,.594-.634,8.334,8.334,0,0,1,1.771-1.984,3.13,3.13,0,0,1,2.51-.634c.3.068.594.2.9.24.476.063,1.065-.05,1.346.335.308.417-.054.988-.43,1.345a5.441,5.441,0,0,0-1.717,2.22.493.493,0,0,0-.032.254c.068.285.485.272.752.15a11.363,11.363,0,0,0,1.835-1.259,4.661,4.661,0,0,1,1.622-.652,1.332,1.332,0,0,1,1.169.091,1.059,1.059,0,0,1,.227,1.237,2.889,2.889,0,0,1-.874,1.015,27.493,27.493,0,0,0-4.123,3.647c-1.173,1.454-1.355,3.488-1.78,5.255a17.16,17.16,0,0,1-2.084,5.695,2.79,2.79,0,0,0-.276,3.384A5.75,5.75,0,0,1,133.008,242.013Z" transform="translate(-98.268 -215.778)"/><path class="g" d="M126.827,264.928c.281,6.451.689,12.979.829,19.471.068,4.163.222,8.354.421,12.522a82.559,82.559,0,0,0,1.8,11.634c-.163-.784.462-1.953.625-2.7.14-.661.122-1.323.218-1.984a20.385,20.385,0,0,1,2.251-5.613,4.551,4.551,0,0,1,2.492-2.31c.675-.258,1.327-.539,1.98-.779A18.244,18.244,0,0,1,141.17,294c.693-.122,5.858-.766,6.107.063a127.618,127.618,0,0,1-4.336-22.942,56.228,56.228,0,0,1-.045-15.031,45.792,45.792,0,0,1,4.92-13.623c2.265-4.308,4.9-8.426,7.271-12.685a25.064,25.064,0,0,0,1.735-3.312,8.139,8.139,0,0,1-4.453-1.454,6.192,6.192,0,0,1-1.237-1.069.511.511,0,0,1-.145-.227,4.682,4.682,0,0,1-.933-3.094,6.952,6.952,0,0,0-1.155,1.123c-.462.444-.924.911-1.386,1.377-.9.915-1.8,1.848-2.664,2.809-1.767,1.916-3.443,3.883-5.078,5.917a117.855,117.855,0,0,0-7.987,11.3,30.389,30.389,0,0,0-4.254,10c0,.091-.027.154-.032.222A50.533,50.533,0,0,0,126.827,264.928Z" transform="translate(-126.767 -198.645)"/><path class="h" d="M128.115,264.928c.281,6.451.689,12.979.829,19.471.068,4.163.222,8.354.421,12.522a82.555,82.555,0,0,0,1.8,11.634c-.163-.784.462-1.953.625-2.7.141-.661.122-1.323.218-1.984a20.385,20.385,0,0,1,2.251-5.613,4.551,4.551,0,0,1,2.492-2.31c.675-.258,1.327-.539,1.98-.779.6-1.654,1.182-3.334,1.762-5.015a5.968,5.968,0,0,0,.53-3.008c-.313-2.052-1.857-1.672-3.352-1.916a5.077,5.077,0,0,1-3.633-2.478,10.108,10.108,0,0,1-.974-3.629c-.439-3.162-.815-6.342-1.164-9.545-.471-4.558-.847-9.219.118-13.7a37.838,37.838,0,0,1,3.846-9.731,94.007,94.007,0,0,1,12.617-18.212c1.259-1.4,2.555-2.791,3.792-4.218a4.682,4.682,0,0,1-.933-3.094,6.952,6.952,0,0,0-1.155,1.123c-.462.444-.924.911-1.386,1.377-.9.915-1.8,1.848-2.664,2.809-1.767,1.916-3.443,3.883-5.078,5.917a117.852,117.852,0,0,0-7.987,11.3,30.389,30.389,0,0,0-4.254,10c0,.091-.027.154-.032.222A50.534,50.534,0,0,0,128.115,264.928Z" transform="translate(-128.055 -198.645)"/></g><g transform="translate(0 77.815)"><g transform="translate(0 0.002)"><path class="i" d="M188.2,221.98l-42.876-8.317a16.133,16.133,0,0,0-7.842.32c-3.564,1.1-7.538,3.807-7.91,10.335,0,0-.429,6.163,9.784,9.564S188.2,221.98,188.2,221.98Z" transform="translate(-129.566 -205.904)"/><path class="j" d="M166.984,227.76s-11.03,4.606-5.865,7.847a5.994,5.994,0,0,0,5.525.333c3.081-1.317,8.265-3.542,8.431-3.678Z" transform="translate(-158.49 -200.228)"/><path class="k" d="M65.7,211.825l-.328-1.509L80,208.415Z" transform="translate(68.081 -207.838)"/><g transform="translate(98.554)"><path class="l" d="M105.138,208.106l-27.662,5.6.039.2a1.738,1.738,0,0,0-.446.071c-1.34.421-2.008,2.367-1.492,4.349s2.018,3.246,3.357,2.826l6.644-1.208L98.429,217.6a76.95,76.95,0,0,1,8.824-1.5c1.618-.1,2.9-1.744,3.489-3.127a3.376,3.376,0,0,0-1.439-3.9A5.164,5.164,0,0,0,105.138,208.106Z" transform="translate(-75.402 -208.001)"/></g><path class="i" d="M128.857,230.254s-6.818,13.539,4.792,18.215a15.582,15.582,0,0,0,14.289-1.619c4.088-2.675,9.929-6.561,14.319-9.741,7.5-5.433,20.5-15.691,20.5-15.691l-26.245,3.835Z" transform="translate(-120.363 -202.722)"/><path class="m" d="M191.189,219.532,97.6,233.923l92.134-21.831h0a4.893,4.893,0,0,1,1.813,6.866Z" transform="translate(-89.104 -206.391)"/><path class="n" d="M133.355,231.377s-9.779-5.739,4.572-10.391,44.819-1.171,44.819-1.171Z" transform="translate(-124.861 -203.845)"/></g><path class="o" d="M200.9,210.535,75.662,235.541,167.8,213.707l27.658-5.61a5.215,5.215,0,0,1,4.159.97A4.575,4.575,0,0,1,200.9,210.535Z" transform="translate(-67.166 -208)"/></g><g transform="translate(17.934 75.725)"><g transform="translate(0 0)"><path class="p" d="M118.471,294.74a5.612,5.612,0,0,0,.375,2.14,4.6,4.6,0,0,0,1.082,1.736,5.811,5.811,0,0,0,1.337.871,4.738,4.738,0,0,0,.943.351,8.481,8.481,0,0,0,4.531.163c2.02-.515,3.357-1.833,4.978-3.006a16.286,16.286,0,0,1,3.612-1.785,21.834,21.834,0,0,1,3.5-.846,25.944,25.944,0,0,0,6.08-1.713c4.464-2.088,5.964-7.677,5.051-12.165a4.764,4.764,0,0,0-1.27-2.7,4.7,4.7,0,0,0-3.709-.962,20.407,20.407,0,0,0-6.811,2.256c-.986.443-1.948.938-2.934,1.4-1.972.943-4.04,1.578-5.989,2.631a21.827,21.827,0,0,0-1.857,1.174c-.611.447-1.217.895-1.809,1.361-1.4,1.13-3.074,1.9-4.387,3.151a8.153,8.153,0,0,0-2.516,4.223A8.682,8.682,0,0,0,118.471,294.74Z" transform="translate(-79.856 16.437)"/><path class="q" d="M121.78,288.8a5.613,5.613,0,0,0,.375,2.141,4.6,4.6,0,0,0,1.082,1.736,5.808,5.808,0,0,0,1.337.871,4.73,4.73,0,0,0,.943.351,7.064,7.064,0,0,1-.144-1.737,6.944,6.944,0,0,1,2.679-5.1,3.277,3.277,0,0,1,.938-.515,4.918,4.918,0,0,1,1.549-.12c2.16.024,5.19-.606,6.6-2.415,1.361-1.693-.471-3.925-2.068-4.651a11.924,11.924,0,0,0-4.012-.986c-.12,0-.236-.024-.356-.024-.611.447-1.217.895-1.809,1.361-1.4,1.13-3.074,1.9-4.387,3.151a8.154,8.154,0,0,0-2.516,4.223A8.683,8.683,0,0,0,121.78,288.8Z" transform="translate(-83.164 22.378)"/><path class="p" d="M127.26,301.934a4.581,4.581,0,0,0,2.727,1.6l.418.072a7.14,7.14,0,0,0,3.877-.659,7.451,7.451,0,0,0,2.819-2.511,26.5,26.5,0,0,1,3.781-4.507c1.712-1.506,3.872-2.328,5.844-3.478a16.414,16.414,0,0,0,6.412-6.5c.091-.188.188-.4.3-.611a7.637,7.637,0,0,0,.659-3.829,3.982,3.982,0,0,0-.683-1.9,6.205,6.205,0,0,0-.654-.75,5.219,5.219,0,0,0-3.406-1.246,11.874,11.874,0,0,0-4.04.4,34.2,34.2,0,0,0-6.032,2.886,15.286,15.286,0,0,0-4.815,3.454c-.823.938-1.361,2.02-2.184,2.934a5.324,5.324,0,0,0-.7.962c-.356.5-.611,1.01-.919,1.53-.466.842-1.126,1.6-1.664,2.4a14.751,14.751,0,0,0-2.492,5.469A5.3,5.3,0,0,0,127.26,301.934Z" transform="translate(-121.776 19.411)"/><path class="q" d="M129.983,293.764a4.582,4.582,0,0,0,2.727,1.6l.418.072a9.137,9.137,0,0,1,.471-5.637,4.243,4.243,0,0,1,2.232-2.439,8.361,8.361,0,0,1,2.3-.332c2.232-.164,7.047-1.5,5.214-4.671a4.887,4.887,0,0,0-2.843-2.068,10.74,10.74,0,0,0-6.2-.212c-.356.5-.611,1.01-.919,1.53-.467.842-1.126,1.6-1.664,2.4a14.751,14.751,0,0,0-2.492,5.469A5.3,5.3,0,0,0,129.983,293.764Z" transform="translate(-124.5 27.582)"/><path class="r" d="M125.773,363.846q.209,11.3.611,22.655a5.639,5.639,0,0,0,.423,2.256,4.6,4.6,0,0,0,1.409,1.477,6.594,6.594,0,0,0,.75.472,11.043,11.043,0,0,0,10.168.375,4.486,4.486,0,0,0,2.674-3.569c1.174-7.4,12.213-83.238,15.238-105.806.188-1.429.356-2.65.471-3.612a3.036,3.036,0,0,0-.072-1.53,2.97,2.97,0,0,0-1.01-1.077c-.3-.236-.611-.471-.914-.731a117.214,117.214,0,0,1-12.208-11.01c-1.9-1.972-3.762-4.016-5.522-6.128a29.815,29.815,0,0,0-2.535-2.631c-.327-.327-2.323-2.4-2.044-2.886a42.144,42.144,0,0,0-4.786,16.224c-.611,6.2.019,12.232.539,18.36.279,3.5.659,6.975.986,10.452,1.1,11.549,1.477,23.41-1.361,34.772-.471,1.833-1.01,3.55-1.506,5.31a30.275,30.275,0,0,0-.842,4.156C125.349,348.887,125.633,356.285,125.773,363.846Z" transform="translate(-121.602 -77.647)"/><path class="s" d="M125.773,363.846q.209,11.3.611,22.655a5.639,5.639,0,0,0,.423,2.256,4.6,4.6,0,0,0,1.409,1.477,6.594,6.594,0,0,0,.75.472c.914-18.293,2.064-36.585,5.07-54.637,1.246-7.658,2.843-15.286,3.006-23.011.212-9.557-1.76-19.375.919-28.557a3.609,3.609,0,0,1,.866-1.64c.847-.755,2.136-.52,3.266-.308,5.07.986,10.611.986,14.954-.846.188-1.429.356-2.65.471-3.612a3.036,3.036,0,0,0-.072-1.53,2.97,2.97,0,0,0-1.01-1.077c-.3-.236-.611-.471-.914-.731a117.214,117.214,0,0,1-12.208-11.01c-1.9-1.972-3.762-4.016-5.522-6.128a29.815,29.815,0,0,0-2.535-2.631c-.327-.327-2.323-2.4-2.044-2.886a42.144,42.144,0,0,0-4.786,16.224c-.611,6.2.019,12.232.539,18.36.279,3.5.659,6.975.986,10.452,1.1,11.549,1.477,23.41-1.361,34.772-.471,1.833-1.01,3.55-1.506,5.31a30.275,30.275,0,0,0-.842,4.156C125.349,348.887,125.633,356.285,125.773,363.846Z" transform="translate(-121.602 -77.647)"/><path class="r" d="M120.9,279.137c1.409,5.094,4.319,9.461,5.82,14.512a165.632,165.632,0,0,1,3.925,16.152c2.112,10.919,3.357,22,4.6,33.04.755,6.595,1.506,13.218,2.256,19.817.707,6.34,1.058,12.7,1.433,19.115a3.184,3.184,0,0,0,.236,1.241,2.982,2.982,0,0,0,.678.774,9.668,9.668,0,0,0,3.43,1.833,10.3,10.3,0,0,0,9.274-1.573,3.4,3.4,0,0,0,1.034-1.126,4.151,4.151,0,0,0,.327-1.529c.212-2.323.423-4.647.611-6.97.164-1.857.895-14.3,1.318-18.74,2.323-23.949,5.8-47.643,5.681-71.756,0-1.573-.024-3.151-.048-4.724-.048-2.487-.115-4.974-.279-7.465a82.531,82.531,0,0,0-3.054-19.606c.587,1.924-4.271,5.142-5.681,5.445-1.785.38-3.617.592-5.4,1.034-4.416,1.058-8.807,2.208-13.127,3.569-4.18,1.246-12.7,2.3-13.5,7.61A22.443,22.443,0,0,0,120.9,279.137Z" transform="translate(-99.234 -77.518)"/><path class="t" d="M120.967,279.137c1.409,5.094,4.319,9.461,5.82,14.512a165.63,165.63,0,0,1,3.925,16.152c2.112,10.919,3.357,22,4.6,33.04.755,6.595,1.506,13.218,2.256,19.817.707,6.34,1.058,12.7,1.433,19.115a3.183,3.183,0,0,0,.236,1.241,2.982,2.982,0,0,0,.678.774,9.668,9.668,0,0,0,3.43,1.833c-.212-2.655-.471-5.282-.726-7.937a571.911,571.911,0,0,1-1.76-79.245c.188-3.478.375-7.023,1.592-10.289,1.506-4.06,4.6-6.292,7.985-8.24,3.968-2.3,8.312-4.2,10.827-8.172a82.532,82.532,0,0,0-3.054-19.606c.587,1.924-4.271,5.142-5.681,5.445-1.784.38-3.617.592-5.4,1.034-4.416,1.058-8.807,2.208-13.127,3.569-4.18,1.246-12.7,2.3-13.5,7.61A22.443,22.443,0,0,0,120.967,279.137Z" transform="translate(-99.302 -77.518)"/><path class="g" d="M120.034,253.589c.375,3.425.563,6.83,1.246,10.236,1.1,5.4,2.747,10.683,4.108,16.013a104.383,104.383,0,0,1,2.655,16.109,68.764,68.764,0,0,1,.491,8.5c-.067,3.03-.236,6.085-.4,9.11-.375,6.013-.866,12.025-1.337,18.038a6.761,6.761,0,0,0,.164,2.746,6.079,6.079,0,0,0,1.573,2.275,37.168,37.168,0,0,0,25.945,11.342,37.146,37.146,0,0,0,26.3-10.568,3.8,3.8,0,0,0,1.337-3.992c-.678-9.226-.962-18.5-.847-27.754.072-4.743.236-9.485.707-14.2.938-9.158,2.112-17.941,1.289-27.095a27.17,27.17,0,0,0-1.972-7.821,35.568,35.568,0,0,0-2.371-4.651,16.56,16.56,0,0,0-2.088-2.886,15.133,15.133,0,0,0-2.516-2.092c-.563-.351-1.126-.7-1.712-1.01a19.246,19.246,0,0,0-2.136-.914,6.771,6.771,0,0,0-2.958-.563c-.823.115-1.573.89-2.347,1.27a30.6,30.6,0,0,1-15.5,2.79,13.272,13.272,0,0,1-4.555-1.029c-.164-.072-.356-.168-.519-.26a6.06,6.06,0,0,1-3.025-3.454,1.976,1.976,0,0,1-.144-.539,3.12,3.12,0,0,1-.067-.539,1.865,1.865,0,0,1-.024-.375,12,12,0,0,1,.164-2.068,5.9,5.9,0,0,0,.072-1.265c0-.1-.024-.188-.024-.284a1.438,1.438,0,0,0-.12-.284,6.9,6.9,0,0,0-2.088-1.8,17.269,17.269,0,0,0-2.891-1.621,10.531,10.531,0,0,0-13.266,3.684,14.927,14.927,0,0,0-2.3,4.531A26.034,26.034,0,0,0,120.034,253.589Z" transform="translate(-119.856 -146.786)"/><path class="f" d="M121.92,263.742c1.6,3.146,4.93,5.142,8.379,5.916a27.758,27.758,0,0,0,10.52-.188,12.76,12.76,0,0,0,3.545-1.01,3.339,3.339,0,0,0,1.53-1.313,3.979,3.979,0,0,0,.4-1.15c.539-2.02,1.433-5.142,3.425-6.152a23.555,23.555,0,0,0,2.843-1.174,5.85,5.85,0,0,0,1.881-2.371,25.892,25.892,0,0,0,1.809-4.675,25.128,25.128,0,0,0,.842-9.062,8.143,8.143,0,0,1-.043-2.136,10.919,10.919,0,0,1,.563-1.693c1.222-3.1,1.453-7.561-1.929-9.437a6.84,6.84,0,0,0-5.82.139,14.051,14.051,0,0,0-4.791,3.29c-1.506,1.6-2.631,3.521-3.992,5.209a43.417,43.417,0,0,1-6.34,5.988A19.66,19.66,0,0,0,129.6,249.4a9.047,9.047,0,0,0-.635,1.5c-.75,1.972-1.058,4.084-2,5.989a14.233,14.233,0,0,1-2.65,3.709,12.535,12.535,0,0,1-2.02,1.645,1.279,1.279,0,0,0-.544.515A1.164,1.164,0,0,0,121.92,263.742Z" transform="translate(-103.589 -166.78)"/><path class="e" d="M126.375,243.241a7.68,7.68,0,0,0,1.453,4.651,11.628,11.628,0,0,0,2.655,2.208c1.077.7,2.323,1.429,3.593,1.174A30.915,30.915,0,0,1,134.5,245a11.427,11.427,0,0,1,2.16-4.695,4.837,4.837,0,0,0,1.289-3.593,3.736,3.736,0,0,0-1.712-2.722,5.832,5.832,0,0,0-2.982-.726,6.459,6.459,0,0,0-2.232.279c-.75,1.972-1.058,4.084-2,5.989A14.232,14.232,0,0,1,126.375,243.241Z" transform="translate(-105.649 -149.424)"/><path class="u" d="M141.423,243.859a24.5,24.5,0,0,0,5.406-1.558,25.666,25.666,0,0,1,3.213-1.3c2.819-.77,5.835.067,8.471,1.313a11.128,11.128,0,0,0-4.036.683,18.034,18.034,0,0,0-3.208,2,29.17,29.17,0,0,1-14.661,4.993,18.98,18.98,0,0,1-12.246-3.42,6.611,6.611,0,0,1-2.044-2.371,7.719,7.719,0,0,1-.034-5.484c.308-.938.75-2.41,1.587-3.035a3.862,3.862,0,0,1,1.231-.534q1.292-.368,2.607-.63a9.988,9.988,0,0,0-1.356,2.857,4.108,4.108,0,0,0,.673,3.944,8.55,8.55,0,0,0,4.276,2.516,17.9,17.9,0,0,0,4.988.486A33.969,33.969,0,0,0,141.423,243.859Z" transform="translate(-104.145 -144.651)"/><path class="v" d="M121.738,246a39.581,39.581,0,0,0,.611,6.619,37.531,37.531,0,0,0,3.5,11.578,11.592,11.592,0,0,0,11.01,5.964,13.141,13.141,0,0,0,10.452-7.186c.587-1.15.986-2.371,1.549-3.5a9,9,0,0,1,2.91-3.829,1.912,1.912,0,0,1,1.736-.212,2.421,2.421,0,0,1,1.106,1.6.474.474,0,0,0,.164.3.443.443,0,0,0,.351.048c.962-.188,1.482-1.2,1.857-2.087.847-1.972,1.664-3.944,2.511-5.9a15.7,15.7,0,0,0,.847-2.838,26.151,26.151,0,0,0,.447-4.7,16.326,16.326,0,0,0-.072-2.184,14.487,14.487,0,0,0-3.5-8.966c-3.03-3.478-8.009-4.767-12.448-5.1a24.4,24.4,0,0,0-14.512,3.218c-.188.12-.351.236-.539.351a17.814,17.814,0,0,0-6.527,8.692A22.87,22.87,0,0,0,121.738,246Z" transform="translate(-106.158 -178.854)"/><path class="w" d="M121.738,236.225a39.581,39.581,0,0,0,.611,6.619,37.53,37.53,0,0,0,3.5,11.578,11.592,11.592,0,0,0,11.01,5.965,13.141,13.141,0,0,0,10.452-7.186c.587-1.15.986-2.371,1.549-3.5a9,9,0,0,1,2.91-3.829,1.912,1.912,0,0,1,1.736-.212,2.421,2.421,0,0,1,1.106,1.6.474.474,0,0,0,.164.3.442.442,0,0,0,.351.048c.962-.188,1.482-1.2,1.857-2.087.847-1.972,1.664-3.944,2.511-5.9a15.692,15.692,0,0,0,.847-2.838,26.152,26.152,0,0,0,.447-4.7,16.326,16.326,0,0,0-.072-2.184,16.351,16.351,0,0,1-3.944,3.569,24.919,24.919,0,0,1-9.346,3.381,36.3,36.3,0,0,1-5.565.471c-5.94.048-12.352-1.313-16.32-5.753A16.639,16.639,0,0,1,123.2,228.1,22.87,22.87,0,0,0,121.738,236.225Z" transform="translate(-106.158 -169.081)"/><path class="f" d="M116.653,245.284a4.071,4.071,0,0,0,1.972.616,60.838,60.838,0,0,1,11.929,2.771c2.439.818,5.022,1.991,6.1,4.319.914,1.972,3.829,2.232,5.825,1.385.75-.332,1.429-.822,2.16-1.2a1.936,1.936,0,0,1,.515-.212,7.165,7.165,0,0,1,4.2-.423c-.519-.115-1.506-3.708-1.784-4.319-.774-1.6-1.506-3.218-2.136-4.863a60.88,60.88,0,0,1-2.679-9.721c-.471-2.347-.871-4.695-1.27-7.018-.394-2.256-.3-5.426-2.179-7.047-.356-.3-1.2-.659-1.554-.115-.236.351.072,1.361.1,1.76.067,1.857.115,3.709.188,5.565,0,.163-.048.4-.212.4-.14.024-.236-.12-.284-.26-.774-1.809-1.972-3.473-2.7-5.329a11.422,11.422,0,0,0-3.684-4.344c-.568-.375-1.385-.611-1.857-.12a5.33,5.33,0,0,0-1.761-1.174,1.886,1.886,0,0,0-1.972.356c-1.27,1.313.163,4.483.587,5.916q1.053,3.557,2.4,6.975c-.048-.12-.895-.587-1.058-.779-.327-.327-.587-.63-.914-.938a19.171,19.171,0,0,1-2-2.4,18.063,18.063,0,0,0-4.531-4.6,1.374,1.374,0,0,0-.779-.308.943.943,0,0,0-.774.351,1.319,1.319,0,0,0-.4.755,3.347,3.347,0,0,0,.308,1.712c1.645,4.156,4.459,7.725,6.691,11.6a9.941,9.941,0,0,1,1.337,3.17,4.065,4.065,0,0,1-.75,3.29,4.2,4.2,0,0,1-2.583,1.289,23.72,23.72,0,0,1-2.934.188,17.8,17.8,0,0,0-2.934.447,1.918,1.918,0,0,0-.938.447A1.338,1.338,0,0,0,116.653,245.284Z" transform="translate(-67.398 -215.831)"/><path class="e" d="M117.266,241.557a4.071,4.071,0,0,0,1.972.616,60.845,60.845,0,0,1,11.929,2.771c2.439.818,5.022,1.991,6.1,4.32.914,1.972,3.829,2.232,5.825,1.385.75-.332,1.429-.822,2.16-1.2a1.939,1.939,0,0,1,.515-.212c.024-.024.048-.072.072-.1.822-1.2,1.828-3.709.63-4.882a4.806,4.806,0,0,0-2.463-1.27,1.442,1.442,0,0,0-.308-.043c-1.217-.168-2.439.139-3.661.067a9,9,0,0,1-3.781-1.077,11.949,11.949,0,0,1-4.3-3.949c-1.082-1.616-9.841-15.19-12.588-20.635-.091-.192-.164-.38-.26-.543a1.319,1.319,0,0,0-.4.755,3.347,3.347,0,0,0,.308,1.712c1.645,4.156,4.459,7.725,6.691,11.6a9.941,9.941,0,0,1,1.337,3.17,4.065,4.065,0,0,1-.75,3.29,4.2,4.2,0,0,1-2.583,1.289,23.711,23.711,0,0,1-2.934.188,17.8,17.8,0,0,0-2.934.447,1.92,1.92,0,0,0-.938.447A1.338,1.338,0,0,0,117.266,241.557Z" transform="translate(-68.011 -212.104)"/><path class="g" d="M116.361,312.378c.024.072.067.12.091.188,2.02,3.713,5.426,7.706,10.144,6.739,2.256-.467,3.944-2.251,5.517-3.92,9.841-10.5,20.452-20.029,28.952-31.746a40.976,40.976,0,0,0,3.829-6.34,11.2,11.2,0,0,0,1.01-4.671c.115-3.545-.938-7.326-1.669-10.5-1.525-6.6-3.05-13.223-5.209-19.678a164.6,164.6,0,0,0-7.258-17.542,5.256,5.256,0,0,0-.7-1.15,3.88,3.88,0,0,0-1.433-.846,12.044,12.044,0,0,0-10.38,1.2,11.4,11.4,0,0,0-3.636,3.617q5.072,16.205,8.9,32.78a29.744,29.744,0,0,1,1.1,8.947,4.946,4.946,0,0,1-.091.587c-.4,3.285-2.28,5.657-4.276,8.264a36.24,36.24,0,0,1-7.629,7.4,25.868,25.868,0,0,1-6.527,3.8c-2.256.7-4.651,1.125-6.927,1.828a10.916,10.916,0,0,0-5.589,3.5,8.474,8.474,0,0,0-1.506,3.617C112.273,303.1,114.2,308.295,116.361,312.378Z" transform="translate(-68.703 -191.419)"/><path class="h" d="M112.889,272.464c.024.072.067.12.091.188,2.02,3.713,5.426,7.706,10.144,6.739,2.256-.467,3.944-2.251,5.517-3.92,9.841-10.5,20.452-20.029,28.952-31.746a40.975,40.975,0,0,0,3.829-6.34,11.194,11.194,0,0,0,1.01-4.671,10.274,10.274,0,0,1-2.256,3.237c-11.549,11.65-21.39,25.1-34.421,35.084-2.419,1.852-5.281,3.685-8.312,3.333A10.509,10.509,0,0,1,112.889,272.464Z" transform="translate(-65.231 -151.505)"/><path class="h" d="M125.449,259.026a29.744,29.744,0,0,1,1.1,8.947,4.949,4.949,0,0,1-.091.587,19.5,19.5,0,0,0,2.559-7.749,39.271,39.271,0,0,0-.871-12.7,138.019,138.019,0,0,0-6.176-20.664,43.038,43.038,0,0,0-1.785-4.815,11.4,11.4,0,0,0-3.636,3.617Q121.622,242.45,125.449,259.026Z" transform="translate(-49.637 -189.933)"/></g></g></g></g></svg>