<svg xmlns="http://www.w3.org/2000/svg" xmlns:xlink="http://www.w3.org/1999/xlink" width="296.522" height="380" viewBox="0 0 296.522 380"><defs><style>.a{opacity:0.32;fill:url(#a);}.b{fill:url(#b);}.c{fill:#fff;}.d{fill:#f88667;}.e{fill:#e19dd0;}.f{fill:#e45940;}.g{fill:#110239;}.h{fill:#01c7e2;}.i{fill:#00a7cc;}.j{opacity:0.12;}.k{fill:#514e58;}.l{fill:#3e3b42;}</style><linearGradient id="a" y1="0.5" x2="1" y2="0.5" gradientUnits="objectBoundingBox"><stop offset="0" stop-color="#40a9e6"/><stop offset="1" stop-color="#1fa9ff"/></linearGradient><linearGradient id="b" x1="1.026" y1="-1.149" x2="0.073" y2="1.839" gradientUnits="objectBoundingBox"><stop offset="0" stop-color="#40d5e6"/><stop offset="1" stop-color="#57f"/></linearGradient></defs><g transform="translate(-30)"><g transform="translate(161.995 0)"><rect class="a" width="164.528" height="62.401" rx="27.708"/><g transform="translate(107.709 11.096)"><path class="b" d="M650.763,1271.088a21.011,21.011,0,1,1,21.011-21.011A21.035,21.035,0,0,1,650.763,1271.088Zm0-37.818a16.807,16.807,0,1,0,16.807,16.807A16.826,16.826,0,0,0,650.763,1233.27Z" transform="translate(-629.752 -1229.066)"/></g><rect class="c" width="57.442" height="5.049" transform="translate(36.669 16.57)"/><rect class="c" width="48.969" height="5.049" transform="translate(45.143 29.582)"/><rect class="c" width="78.741" height="5.049" transform="translate(15.371 42.595)"/></g><g transform="translate(161.995 81.737)"><rect class="a" width="164.528" height="62.401" rx="27.708" transform="translate(0 0)"/><g transform="translate(107.709 11.096)"><path class="b" d="M650.763,1271.088a21.011,21.011,0,1,1,21.011-21.011A21.035,21.035,0,0,1,650.763,1271.088Zm0-37.818a16.807,16.807,0,1,0,16.807,16.807A16.826,16.826,0,0,0,650.763,1233.27Z" transform="translate(-629.752 -1229.066)"/></g><rect class="c" width="57.442" height="5.049" transform="translate(36.669 16.57)"/><rect class="c" width="48.969" height="5.049" transform="translate(45.143 29.582)"/><rect class="c" width="78.741" height="5.049" transform="translate(15.371 42.595)"/></g><g transform="translate(161.995 175.151)"><rect class="a" width="164.528" height="62.401" rx="27.708" transform="translate(0 0)"/><g transform="translate(107.709 11.096)"><path class="b" d="M650.763,1271.088a21.011,21.011,0,1,1,21.011-21.011A21.035,21.035,0,0,1,650.763,1271.088Zm0-37.818a16.807,16.807,0,1,0,16.807,16.807A16.826,16.826,0,0,0,650.763,1233.27Z" transform="translate(-629.752 -1229.066)"/></g><rect class="c" width="57.442" height="5.049" transform="translate(36.669 16.57)"/><rect class="c" width="48.969" height="5.049" transform="translate(45.143 29.582)"/><rect class="c" width="78.741" height="5.049" transform="translate(15.371 42.595)"/></g><g transform="translate(30 62.231)"><path class="d" d="M367.624,391.268s7.7,4.69,14.153,17.567,10.481,19.781,11.25,19.165c3.434-2.749,12.5-10.511,25.771-31.309,1.613-2.531-.06-4.168-.114-6.144s-2.7-6.556-2.129-7.856,2.184-.987,3.742,2.134,1.042,5.042,2.293,4.159a34.334,34.334,0,0,0,5.3-6.347c.988-1.613,4.109-4.784,4.943-4.263.789.491.978,1.34-3.727,8.084,1.707-2.4,5.91-7.965,7.364-6.63,1.087,1-3.052,5.99-4.923,8.208,1.6-1.861,5.26-5.782,6.565-4.486,1.583,1.573-6.2,7.489-6.2,7.489s5.811-4.605,6.59-3.251-2.6,4.342-5.93,6.218-3.925,2.546-5.27,3.225c-.863.432-2.243,2.6-3.047,3.935-.055.109-24.386,52.206-33.12,47.407S370.79,426.7,370.79,426.7a40.64,40.64,0,0,1-4.5-13.627C365.177,405.759,365.867,395.73,367.624,391.268Z" transform="translate(-301.543 -322.856)"/><path class="e" d="M406.82,407.662c-1.762-4.119-11.95-24.748-19.22-27.845l-9.751,3.811c-4.3,5.36,1.191,18.074,2.968,19.508,1.5,1.216,8.724,16.079,10.223,17.627A125.948,125.948,0,0,0,406.82,407.662Z" transform="translate(-321.792 -316.918)"/><path class="f" d="M398.486,373.817,384.5,376s3.93,12.431-2.1,23.036c0,0,10.054,10.893,17.066,8.01,7.494-3.077,4.7-10.645,4.7-10.645S396.536,390.352,398.486,373.817Z" transform="translate(-350.23 -340.693)"/><path class="g" d="M384.206,426.946s-3.771,14.967-1.618,17.4,33.512,7.791,36.534,5.3,2.084-7.459-4.3-10.158c-6.848-2.9-10.585-1.414-14.793-3.851s-2.119-9.295-2.119-9.295Z" transform="translate(-363.959 -132.529)"/><path class="g" d="M373.508,426.4s-.754,18.773,1.747,20.853,34.311,2.561,36.917-.362,1.1-7.082-5.355-8.511c-5.8-1.285-10.114-.149-14.585-2.06-3.925-1.677-5.885-10.476-5.885-10.476Z" transform="translate(-314.271 -134.549)"/><path class="h" d="M419.09,400.219,378.2,392.954s15.473,84.18,17.533,93.886,8.153,73.7,8.153,73.7l17.826-2.094s-.208-69.937-1.1-76.16S419.09,400.219,419.09,400.219Z" transform="translate(-346.428 -264.862)"/><path class="i" d="M405.754,434.3c2.025-13.2.66-23.458,3.573-29.894,1.161-2.556,4.933-1.891,5.786-4.5a8.076,8.076,0,0,1-1.27-2.01l-33.954-5.087s15.4,72.568,19.394,90.373C399.283,483.183,404.136,444.838,405.754,434.3Z" transform="translate(-348.194 -265.432)"/><path class="h" d="M420.307,393.6l-32.837,8.357a62.734,62.734,0,0,0-1.985,27.235c2.7,18.267,2.972,46.916,3.3,50.8s-6.139,65.615-6.635,80.388l17.691.749S413.409,483.8,414.2,482.108,420.307,393.6,420.307,393.6Z" transform="translate(-364.608 -262.318)"/><path class="e" d="M435,426.218c-.69-13.835,3.047-34.708-5.077-39.621-6.809-4.114-12.431-7.449-12.431-7.449s-2.035,4.953-6.878,5.6-12.545-6.645-12.545-6.645-8.858,5.226-16.848,8.794c1.935,6.412-2.055,12.158-2.025,18.55a38.947,38.947,0,0,1-1.39,10.416c3.246,6.948,6.387,13.746,7.077,18.635,1.772,12.61-3.925,31.969-3.925,31.969a221.657,221.657,0,0,0,30.421,4.61c9.454.794,20.376-1.156,30.008-3.568C441.383,467.511,435.681,440.049,435,426.218Z" transform="translate(-364.112 -323.698)"/><path class="j" d="M385.912,401.866c.253-.938.4-1.915.591-2.878.139-.715.332-1.4.437-2.134a38.464,38.464,0,0,0,.358-5.384c-.015-3.132.208-6.481.233-9.836,1.653,1.211,3.677,4.119,5.682,2.943,9.409-5.518,10.7,19.692,10.7,32.391,0,12.659.318,27.532,5.335,39.035-12.069-1.548-20.188-3.514-20.188-3.514s.8-2.724,1.712-6.794c.452-2.03.933-4.4,1.35-6.938.144-.843.278-1.707.4-2.58a79.967,79.967,0,0,0,.759-8.024,43.007,43.007,0,0,0-.293-7.632C392.294,415.628,389.153,408.819,385.912,401.866Z" transform="translate(-372.216 -309.718)"/><path class="d" d="M391.923,370.466s20.019-3.032,22.326-.814,2.685,10.282,2.591,17.1,2.769,19.85-5.186,22.262-23.126-5.022-28.5-18.52C376.315,373.3,390.548,370.665,391.923,370.466Z" transform="translate(-357.384 -360.413)"/><path class="g" d="M393.7,368.854s9.469.323,11.131,14.59c.749,6.427,2.367,11.384.387,11.707s-4.029-1.027-4.029-2.878-.576-7.915-4.352-6.228-2.5,8.977,2.3,11.086a6.016,6.016,0,0,1-2.848,6.4s-9.98-6.278-11.419-17.483S387.653,368.537,393.7,368.854Z" transform="translate(-362.553 -360.404)"/><path class="g" d="M380.437,376.853s2.238-8.952,12.793-9.657,19,5.628,24.053,14.074c0,0-2.878,5.052-13.751,5.692-4.521.268-12.56-.992-16.57-3.072C381.325,380.967,380.437,376.853,380.437,376.853Z" transform="translate(-353.084 -367.142)"/><path class="d" d="M388.058,415.74c.655-3.216,3.682-22.173,4.744-29.19,6.144,2.025,11.806,4.124,18.133,5.811-1.881,4.486-6.243,21.379-6.734,25.969-.68,6.4,2.223,34.7,3.092,44.509h0c.069.784.129,1.449.179,2a13.757,13.757,0,0,0,2.263,5.806c1.434,1.8,6.233,7.667,5.414,10.223s-4.809-2.124-6.273-3.717-1.717,3.732-1.355,6.6,6.134,7.667,5.523,9.632c-.432,1.375-2.2.382-4.437-2.154,1.052,1.573,1.846,3.1,1.26,3.5-.784.536-2.223-.452-3.792-2.144.839,1.3,1.38,2.466.824,2.749-.819.432-2.466-.938-3.965-2.581.779,1.186,1.31,2.318.759,2.665-1.042.66-4.417-2.432-5.7-6.5-1.047-3.29,1.439-12.565,2.333-17.309a8.37,8.37,0,0,0-.3-4.223C397.313,459.162,386.227,424.737,388.058,415.74Z" transform="translate(-387.855 -290.238)"/><path class="e" d="M409.579,425.549a104.48,104.48,0,0,1-22.1-6.64c1.692-11.92,5.886-28.3,12.044-34.822,1.712-1.816,4.754-5.136,7.528-4.183,3.647,1.25,8.317,6.233,8.689,15.91.089,2.367-1.97,16.525-3.657,21.071C411.33,418.909,410.586,422.621,409.579,425.549Z" transform="translate(-386.498 -317.242)"/><g transform="translate(117.636 47.4)"><path class="k" d="M531.512,585.519l13.213-19.629-11.5-6.393-11.376,20.1Z" transform="translate(-521.845 -559.497)"/><path class="l" d="M533.655,585.585,545.091,568.6l-9.957-5.533-9.845,17.4Z" transform="translate(-523.896 -561.319)"/></g></g></g></svg>