<svg xmlns="http://www.w3.org/2000/svg" width="30" height="29.502" viewBox="0 0 30 29.502"><defs><style>.a{fill:#14aeb8;}.b,.c{stroke:none;}.c{fill:#fff;}</style></defs><g class="a" transform="translate(519 525.999)"><path class="b" d="M -515.502685546875 -496.5971374511719 C -516.5287475585938 -496.5972900390625 -517.4883422851563 -497.0537109375 -518.1356201171875 -497.849365234375 C -518.7863159179688 -498.6499328613281 -519.038330078125 -499.6888732910156 -518.826904296875 -500.6997680664063 C -518.1398315429688 -503.9991455078125 -516.3197631835938 -507.0021667480469 -513.7019653320313 -509.1557312011719 C -512.2803955078125 -510.3251037597656 -510.6666564941406 -511.2120361328125 -508.9056396484375 -511.7918701171875 L -508.7235107421875 -511.8518371582031 L -508.8769226074219 -511.9668579101563 C -509.8200988769531 -512.6739501953125 -510.6018981933594 -513.6002807617188 -511.1377868652344 -514.6458129882813 C -511.6998291015625 -515.7422485351563 -511.9847717285156 -516.9259033203125 -511.9847717285156 -518.1638793945313 C -511.9847717285156 -522.4293212890625 -508.5146484375 -525.8994750976563 -504.249267578125 -525.8994750976563 C -499.9830017089844 -525.8994750976563 -496.5121765136719 -522.4293212890625 -496.5121765136719 -518.1638793945313 C -496.5121765136719 -516.926513671875 -496.796875 -515.7434692382813 -497.3583679199219 -514.6475830078125 C -497.893798828125 -513.6025390625 -498.6749572753906 -512.6764526367188 -499.6174011230469 -511.9694519042969 L -499.7710876464844 -511.8541564941406 L -499.5885009765625 -511.79443359375 C -499.4378662109375 -511.7451171875 -499.281982421875 -511.7015686035156 -499.1169738769531 -511.6554565429688 C -498.2773132324219 -511.4208984375 -497.1278686523438 -511.099853515625 -494.4907836914063 -509.4635925292969 L -494.3485717773438 -509.3329772949219 C -494.3417053222656 -509.3240661621094 -494.3331909179688 -509.3154602050781 -494.3230285644531 -509.30712890625 L -494.2969970703125 -509.2857971191406 C -491.6794128417969 -507.1323547363281 -489.8594360351563 -504.1293029785156 -489.1723937988281 -500.8299865722656 C -488.9623413085938 -499.8182678222656 -489.2148132324219 -498.7792358398438 -489.8650512695313 -497.9794006347656 C -490.5124206542969 -497.1837158203125 -491.4717407226563 -496.7273864746094 -492.4970092773438 -496.7273864746094 L -495.9519653320313 -496.7273864746094 L -515.5027465820313 -496.5971374511719 L -515.502685546875 -496.5971374511719 Z M -504.5422973632813 -510.4322204589844 L -504.5447692871094 -510.4321594238281 C -510.4286193847656 -510.2962341308594 -515.5687866210938 -506.022705078125 -516.7669677734375 -500.2706298828125 C -516.8474731445313 -499.8816528320313 -516.7510986328125 -499.4830627441406 -516.5025024414063 -499.1769409179688 C -516.3582763671875 -498.99951171875 -516.0365600585938 -498.7018432617188 -515.5020751953125 -498.7018432617188 L -501.8013610839844 -498.7930603027344 L -501.7886352539063 -498.7931518554688 L -501.7763366699219 -498.7964172363281 C -501.6877136230469 -498.8199768066406 -501.5960083007813 -498.8319396972656 -501.503662109375 -498.8319396972656 L -495.9519653320313 -498.8319396972656 L -494.9538879394531 -498.8385925292969 C -494.9170532226563 -498.8385925292969 -494.8789672851563 -498.8365478515625 -494.8414001464844 -498.83251953125 L -494.8360900878906 -498.8319396972656 L -494.8307189941406 -498.8319396972656 L -492.4970092773438 -498.8319396972656 C -491.963623046875 -498.8319396972656 -491.6422424316406 -499.129638671875 -491.4981689453125 -499.30712890625 C -491.2496948242188 -499.6128540039063 -491.1531982421875 -500.0114440917969 -491.2334594726563 -500.400634765625 C -491.855224609375 -503.3838500976563 -493.5072631835938 -505.9254760742188 -496.1436767578125 -507.9550476074219 L -496.1480712890625 -507.9584350585938 L -496.1527709960938 -507.9613037109375 C -496.7718200683594 -508.337158203125 -497.906494140625 -508.9102783203125 -497.9178771972656 -508.9160461425781 C -500.0541687011719 -510.1061401367188 -502.390380859375 -510.3975830078125 -503.9734191894531 -510.4321594238281 L -503.9766540527344 -510.4322204589844 L -503.9799194335938 -510.4320983886719 C -504.0597534179688 -510.4286499023438 -504.1453552246094 -510.4270324707031 -504.249267578125 -510.4270324707031 C -504.3438720703125 -510.4270324707031 -504.4358825683594 -510.429443359375 -504.5332946777344 -510.4319763183594 L -504.5398254394531 -510.4321594238281 L -504.5422973632813 -510.4322204589844 Z M -504.249267578125 -512.5408935546875 C -504.1581115722656 -512.5408935546875 -504.06689453125 -512.5397338867188 -503.975830078125 -512.538330078125 L -503.9726257324219 -512.5382690429688 L -503.9693908691406 -512.5383911132813 C -500.9680786132813 -512.6856079101563 -498.6170349121094 -515.1566162109375 -498.6170349121094 -518.1638793945313 C -498.6170349121094 -521.2686767578125 -501.1436462402344 -523.7945556640625 -504.249267578125 -523.7945556640625 C -507.3540649414063 -523.7945556640625 -509.8800048828125 -521.2686767578125 -509.8800048828125 -518.1638793945313 C -509.8800048828125 -515.1539306640625 -507.5271301269531 -512.6829833984375 -504.5234985351563 -512.5383911132813 L -504.5202941894531 -512.5382690429688 L -504.5171203613281 -512.538330078125 C -504.4273681640625 -512.5397338867188 -504.3375549316406 -512.5408935546875 -504.249267578125 -512.5408935546875 Z"/><path class="c" d="M -515.5032958984375 -496.6971435546875 L -515.50341796875 -496.6971435546875 L -495.9519653320313 -496.827392578125 L -492.4970092773438 -496.827392578125 C -491.501953125 -496.827392578125 -490.5709228515625 -497.2702941894531 -489.9426574707031 -498.04248046875 C -489.3114624023438 -498.8189086914063 -489.06640625 -499.8275146484375 -489.2702941894531 -500.8096008300781 C -489.9526977539063 -504.0867004394531 -491.760498046875 -507.0695495605469 -494.3603515625 -509.2084350585938 L -494.396240234375 -509.2378234863281 L -494.6437072753906 -509.4406127929688 C -497.1976623535156 -511.0155029296875 -498.3207092285156 -511.3291625976563 -499.1438903808594 -511.5591735839844 C -499.3099975585938 -511.6055603027344 -499.4668884277344 -511.6494140625 -499.6195983886719 -511.6993713378906 L -499.9847717285156 -511.8188781738281 L -499.6774291992188 -512.0494384765625 C -498.7470397949219 -512.7473754882813 -497.9758911132813 -513.6615600585938 -497.4473571777344 -514.6931762695313 C -496.8931579589844 -515.7748413085938 -496.6121520996094 -516.9425048828125 -496.6121520996094 -518.1638793945313 C -496.6121520996094 -522.3741455078125 -500.0381469726563 -525.7994384765625 -504.249267578125 -525.7994384765625 C -508.4595031738281 -525.7994384765625 -511.884765625 -522.3741455078125 -511.884765625 -518.1638793945313 C -511.884765625 -516.94189453125 -511.603515625 -515.7736206054688 -511.0487976074219 -514.69140625 C -510.519775390625 -513.6593627929688 -509.7480163574219 -512.744873046875 -508.8169555664063 -512.046875 L -508.5100708007813 -511.8168334960938 L -508.8743591308594 -511.6968688964844 C -510.6235656738281 -511.1209411621094 -512.2264404296875 -510.239990234375 -513.638427734375 -509.0785217285156 C -516.2386474609375 -506.9393615722656 -518.0465087890625 -503.95654296875 -518.7290649414063 -500.6792907714844 C -518.9342651367188 -499.6980285644531 -518.6896362304688 -498.6895446777344 -518.0580444335938 -497.9124755859375 C -517.4299926757813 -497.1404418945313 -516.4988403320313 -496.697509765625 -515.5032958984375 -496.6971435546875 M -504.5421447753906 -510.5322265625 L -504.5372314453125 -510.5321044921875 L -504.5306701660156 -510.5319519042969 C -504.4339599609375 -510.5294189453125 -504.3425598144531 -510.5270385742188 -504.249267578125 -510.5270385742188 C -504.1468200683594 -510.5270385742188 -504.0625915527344 -510.5286254882813 -503.9842224121094 -510.531982421875 L -503.9777221679688 -510.5322570800781 L -503.9712219238281 -510.5321350097656 C -502.3777465820313 -510.497314453125 -500.026123046875 -510.203857421875 -497.8692626953125 -509.0035095214844 C -497.786376953125 -508.9616394042969 -496.7120361328125 -508.4178161621094 -496.1008911132813 -508.0467834472656 L -496.0914306640625 -508.0410461425781 L -496.0826721191406 -508.0343017578125 C -493.4267883300781 -505.9897155761719 -491.7623596191406 -503.4283142089844 -491.135498046875 -500.4208068847656 C -491.0491638183594 -500.0021057128906 -491.1531066894531 -499.5731811523438 -491.4205322265625 -499.2440795898438 C -491.5758361816406 -499.0528259277344 -491.9221801757813 -498.73193359375 -492.4970092773438 -498.73193359375 L -494.8307189941406 -498.73193359375 L -494.8414306640625 -498.73193359375 L -494.8520812988281 -498.7330932617188 C -494.8861389160156 -498.7367553710938 -494.9205932617188 -498.7385864257813 -494.9532165527344 -498.7385864257813 L -495.9519653320313 -498.73193359375 L -501.503662109375 -498.73193359375 C -501.5873107910156 -498.73193359375 -501.67041015625 -498.7211303710938 -501.7506103515625 -498.6997680664063 L -501.7752380371094 -498.6932373046875 L -501.8007202148438 -498.6930541992188 L -515.5020751953125 -498.6018371582031 C -516.0779418945313 -498.6018371582031 -516.4246826171875 -498.9226379394531 -516.5801391601563 -499.1139221191406 C -516.8477172851563 -499.4434509277344 -516.9515380859375 -499.8724060058594 -516.8648681640625 -500.291015625 C -515.6572875976563 -506.088134765625 -510.4769287109375 -510.3951416015625 -504.5470581054688 -510.5321350097656 L -504.5421447753906 -510.5322265625 M -504.249267578125 -512.4408569335938 C -504.3370361328125 -512.4408569335938 -504.4263305664063 -512.439697265625 -504.5155639648438 -512.4382934570313 L -504.5219116210938 -512.438232421875 L -504.5282897949219 -512.4385375976563 C -507.5853271484375 -512.5856323242188 -509.97998046875 -515.1005249023438 -509.97998046875 -518.1638793945313 C -509.97998046875 -521.3237915039063 -507.4092102050781 -523.8945922851563 -504.249267578125 -523.8945922851563 C -501.0885009765625 -523.8945922851563 -498.5170593261719 -521.3237915039063 -498.5170593261719 -518.1638793945313 C -498.5170593261719 -515.1032104492188 -500.9098510742188 -512.58837890625 -503.9645080566406 -512.4385375976563 L -503.970947265625 -512.438232421875 L -503.9773864746094 -512.4382934570313 C -504.0679016113281 -512.439697265625 -504.1586303710938 -512.4408569335938 -504.249267578125 -512.4408569335938 M -515.5020751953125 -496.4971313476563 C -516.5588989257813 -496.4971313476563 -517.5468139648438 -496.9671325683594 -518.2131958007813 -497.7862548828125 C -518.8822631835938 -498.6094055175781 -519.1424560546875 -499.6794738769531 -518.9248046875 -500.7202453613281 C -518.2330322265625 -504.0419616699219 -516.40087890625 -507.0649108886719 -513.7655029296875 -509.2329711914063 C -512.3290405273438 -510.41455078125 -510.6867980957031 -511.3106689453125 -508.9369201660156 -511.8868408203125 C -510.8460998535156 -513.318115234375 -512.0847778320313 -515.5988159179688 -512.0847778320313 -518.1638793945313 C -512.0847778320313 -522.4852294921875 -508.5692443847656 -525.9994506835938 -504.249267578125 -525.9994506835938 C -499.9278259277344 -525.9994506835938 -496.4121704101563 -522.4852294921875 -496.4121704101563 -518.1638793945313 C -496.4121704101563 -515.6001586914063 -497.6495971679688 -513.3206176757813 -499.5574035644531 -511.8894653320313 C -498.6612548828125 -511.59619140625 -497.6123352050781 -511.51904296875 -494.4300537109375 -509.5436096191406 L -494.2335815429688 -509.3631286621094 C -494.2335815429688 -509.3631286621094 -494.2335815429688 -509.3631286621094 -494.2335815429688 -509.3631286621094 C -494.2342529296875 -509.3636779785156 -494.2694702148438 -509.3925476074219 -494.2694702148438 -509.3925476074219 C -494.2694702148438 -509.3925476074219 -494.260498046875 -509.3851928710938 -494.2335815429688 -509.3631286621094 C -494.2335815429688 -509.3631286621094 -494.2335815429688 -509.3631286621094 -494.2335815429688 -509.3631286621094 C -491.5982360839844 -507.1950378417969 -489.7662048339844 -504.1721496582031 -489.0744934082031 -500.8503723144531 C -488.8581237792969 -499.8082275390625 -489.1182250976563 -498.7395324707031 -489.7874755859375 -497.9163208007813 C -490.4538879394531 -497.0972290039063 -491.4416809082031 -496.6273803710938 -492.4970092773438 -496.6273803710938 L -495.9519653320313 -496.6273803710938 L -515.5020751953125 -496.4971313476563 Z M -504.5424499511719 -510.3321838378906 C -510.3987121582031 -510.1968994140625 -515.4716186523438 -505.9988708496094 -516.6690673828125 -500.250244140625 C -516.7435302734375 -499.8905334472656 -516.654541015625 -499.5228271484375 -516.4248657226563 -499.239990234375 C -516.2921142578125 -499.07666015625 -515.99462890625 -498.8018493652344 -515.5020751953125 -498.8018493652344 L -501.8020324707031 -498.89306640625 C -501.7068176269531 -498.9183959960938 -501.6068420410156 -498.9319458007813 -501.503662109375 -498.9319458007813 L -495.9519653320313 -498.9319458007813 L -494.9545593261719 -498.9385986328125 C -494.9126586914063 -498.9385986328125 -494.8713684082031 -498.9363098144531 -494.8307189941406 -498.9319458007813 L -492.4970092773438 -498.9319458007813 C -492.0058288574219 -498.9319458007813 -491.70849609375 -499.2067260742188 -491.5758056640625 -499.3701477050781 C -491.3460998535156 -499.6528015136719 -491.2571716308594 -500.0204772949219 -491.3313903808594 -500.3804321289063 C -491.9425354003906 -503.3126220703125 -493.5609741210938 -505.8406066894531 -496.2046813964844 -507.8758239746094 C -496.8275451660156 -508.2539978027344 -497.9629211425781 -508.8267517089844 -497.9629211425781 -508.8267517089844 C -499.7551574707031 -509.8251037597656 -501.9112548828125 -510.2870788574219 -503.9755859375 -510.3321838378906 C -504.0658569335938 -510.3282775878906 -504.1575927734375 -510.3270263671875 -504.249267578125 -510.3270263671875 C -504.3473510742188 -510.3270263671875 -504.4443359375 -510.3296203613281 -504.5424499511719 -510.3321838378906 Z M -504.249267578125 -512.640869140625 C -504.1575927734375 -512.640869140625 -504.0658569335938 -512.6397094726563 -503.9743041992188 -512.6383056640625 C -501.0509643554688 -512.7816772460938 -498.717041015625 -515.20458984375 -498.717041015625 -518.1638793945313 C -498.717041015625 -521.21337890625 -501.1982727050781 -523.694580078125 -504.249267578125 -523.694580078125 C -507.2987976074219 -523.694580078125 -509.7799987792969 -521.21337890625 -509.7799987792969 -518.1638793945313 C -509.7799987792969 -515.2033081054688 -507.443359375 -512.779052734375 -504.5186767578125 -512.6383056640625 C -504.4284057617188 -512.6397094726563 -504.3380737304688 -512.640869140625 -504.249267578125 -512.640869140625 Z"/></g></svg>