<svg xmlns="http://www.w3.org/2000/svg" width="188.206" height="67.633" viewBox="0 0 188.206 67.633"><defs><style>.a{fill:#14aeb8;}.b{opacity:0.2;}.c{fill:#fff;}.d{fill:#016263;}</style></defs><g transform="translate(-147 -17.782)"><path class="a" d="M11.34-3.98a3.9,3.9,0,0,1-.57,2.06A4.02,4.02,0,0,1,9.09-.42,5.919,5.919,0,0,1,6.4.14,6.335,6.335,0,0,1,2.48-1.02,4.2,4.2,0,0,1,.8-4.26H4.44A1.921,1.921,0,0,0,5.01-3a1.753,1.753,0,0,0,1.25.46A1.451,1.451,0,0,0,7.3-2.9a1.26,1.26,0,0,0,.38-.96,1.24,1.24,0,0,0-.35-.9,2.744,2.744,0,0,0-.87-.59q-.52-.23-1.44-.55a17.68,17.68,0,0,1-2.19-.89A4.033,4.033,0,0,1,1.37-8.07a3.7,3.7,0,0,1-.61-2.21,3.721,3.721,0,0,1,.64-2.18,4.068,4.068,0,0,1,1.77-1.41,6.456,6.456,0,0,1,2.59-.49,5.806,5.806,0,0,1,3.75,1.12,4.274,4.274,0,0,1,1.57,3.08H7.38a1.9,1.9,0,0,0-.51-1.11,1.5,1.5,0,0,0-1.11-.41,1.43,1.43,0,0,0-.97.32,1.175,1.175,0,0,0-.37.94,1.194,1.194,0,0,0,.33.85A2.515,2.515,0,0,0,5.58-9q.5.22,1.44.56a15.828,15.828,0,0,1,2.22.91,4.247,4.247,0,0,1,1.48,1.31A3.742,3.742,0,0,1,11.34-3.98ZM20,0,16.66-4.74V0H13.24V-14.8h3.42v8.12L20-11.16h4.02l-4.5,5.58L24.12,0Zm5.04-14.3a1.669,1.669,0,0,1,.56-1.29,2.113,2.113,0,0,1,1.48-.51,2.113,2.113,0,0,1,1.48.51,1.669,1.669,0,0,1,.56,1.29,1.647,1.647,0,0,1-.56,1.27,2.113,2.113,0,0,1-1.48.51,2.113,2.113,0,0,1-1.48-.51A1.647,1.647,0,0,1,25.04-14.3Zm3.74,3.14V0H25.36V-11.16Zm5.78-3.64V0H31.14V-14.8Zm5.78,0V0H36.92V-14.8Zm6.42,3.5a5.12,5.12,0,0,1,3.39,1.06,4.605,4.605,0,0,1,1.59,2.8h-3.2a1.773,1.773,0,0,0-.63-1.07,1.913,1.913,0,0,0-1.23-.39,1.345,1.345,0,0,0-.88.25.872.872,0,0,0-.3.71.833.833,0,0,0,.55.78,8.77,8.77,0,0,0,1.73.52,17.18,17.18,0,0,1,2.1.61A3.464,3.464,0,0,1,51.3-5.02a2.791,2.791,0,0,1,.6,1.88,2.883,2.883,0,0,1-.52,1.7,3.424,3.424,0,0,1-1.5,1.16,5.861,5.861,0,0,1-2.32.42,5.974,5.974,0,0,1-3.62-1,4.219,4.219,0,0,1-1.66-2.86h3.3a1.485,1.485,0,0,0,.61,1.1,2.3,2.3,0,0,0,1.37.38,1.275,1.275,0,0,0,.88-.27.91.91,0,0,0,.3-.71.854.854,0,0,0-.55-.83,10.113,10.113,0,0,0-1.79-.53,14.313,14.313,0,0,1-2.04-.56,3.368,3.368,0,0,1-1.38-.97,2.7,2.7,0,0,1-.58-1.83,2.986,2.986,0,0,1,1.14-2.43A4.968,4.968,0,0,1,46.76-11.3ZM53.3-2.72q6.36-4.54,6.36-7.22,0-1.64-1.42-1.64a1.3,1.3,0,0,0-1.17.56,3.433,3.433,0,0,0-.41,1.74H53.32a5.317,5.317,0,0,1,1.56-3.88,5.226,5.226,0,0,1,3.64-1.3,4.733,4.733,0,0,1,3.47,1.16,4.066,4.066,0,0,1,1.17,3.02,6.4,6.4,0,0,1-1.58,4.03A14.734,14.734,0,0,1,57.8-2.92h5.58V-.16H53.3ZM73.6-7.28a3.541,3.541,0,0,1,2.03,1.24,3.394,3.394,0,0,1,.75,2.18,3.513,3.513,0,0,1-1.21,2.84A5.243,5.243,0,0,1,71.7,0H65.12V-14.14h6.42a5.242,5.242,0,0,1,3.34.94,3.227,3.227,0,0,1,1.18,2.68,3.3,3.3,0,0,1-.68,2.13A3.134,3.134,0,0,1,73.6-7.28ZM68.54-8.36h2.24q1.78,0,1.78-1.52T70.74-11.4h-2.2Zm2.44,5.58q1.9,0,1.9-1.56a1.486,1.486,0,0,0-.5-1.19,2.114,2.114,0,0,0-1.42-.43H68.54v3.18ZM82.42-11.3a4.04,4.04,0,0,1,2.2.58,3.487,3.487,0,0,1,1.36,1.58v-2.02h3.4V0h-3.4V-2.02A3.487,3.487,0,0,1,84.62-.44a4.04,4.04,0,0,1-2.2.58,4.52,4.52,0,0,1-2.47-.69,4.721,4.721,0,0,1-1.72-1.99,6.9,6.9,0,0,1-.63-3.04,6.881,6.881,0,0,1,.63-3.05,4.732,4.732,0,0,1,1.72-1.98A4.52,4.52,0,0,1,82.42-11.3Zm1.1,3a2.3,2.3,0,0,0-1.77.72,2.823,2.823,0,0,0-.67,2,2.823,2.823,0,0,0,.67,2,2.3,2.3,0,0,0,1.77.72,2.312,2.312,0,0,0,1.77-.74,2.787,2.787,0,0,0,.69-1.98,2.779,2.779,0,0,0-.69-1.99A2.328,2.328,0,0,0,83.52-8.3Zm15.3-2.98A3.863,3.863,0,0,1,101.87-10,5.134,5.134,0,0,1,103-6.48V0H99.58V-6.08a2.46,2.46,0,0,0-.59-1.75,2.049,2.049,0,0,0-1.57-.63,2.137,2.137,0,0,0-1.65.66,2.67,2.67,0,0,0-.61,1.88V0H91.74V-11.16h3.42v2.04a3.681,3.681,0,0,1,1.43-1.58A4.2,4.2,0,0,1,98.82-11.28ZM112.02,0l-3.34-4.74V0h-3.42V-14.8h3.42v8.12l3.34-4.48h4.02l-4.5,5.58L116.14,0Z" transform="translate(219.066 58.209)"/><g transform="translate(147 17.782)"><path class="a" d="M77.451,55.732V26.915A5,5,0,0,0,74.973,22.6L50,8.188a5,5,0,0,0-4.995,0L20.047,22.6a5,5,0,0,0-2.5,4.319V55.732a5,5,0,0,0,2.5,4.323L45.022,74.466a5,5,0,0,0,4.995,0l24.956-14.4A5,5,0,0,0,77.451,55.732Z" transform="translate(-17.515 -7.518)"/><g class="b" transform="translate(0 0)"><path class="c" d="M74.864,22.576,49.889,8.168a5,5,0,0,0-4.995,0L19.973,22.576A5,5,0,0,0,17.46,26.9v.384a5,5,0,0,1,2.513-4.326L44.948,8.552a5,5,0,0,1,4.995,0L74.917,22.96a5,5,0,0,1,2.444,4.326V26.9a5,5,0,0,0-2.5-4.327Z" transform="translate(-17.46 -7.498)"/></g><g class="b" transform="translate(0.035 47.837)"><path class="d" d="M20.047,136.714l24.975,14.412a5,5,0,0,0,4.995,0l24.956-14.412a5,5,0,0,0,2.5-4.323v-.384a5,5,0,0,1-2.5,4.323L50,150.743a5,5,0,0,1-4.995,0L20.047,136.33a5,5,0,0,1-2.5-4.33v.384a5,5,0,0,0,2.5,4.33Z" transform="translate(-17.55 -132)"/></g><path class="c" d="M79.243,63.829a7.393,7.393,0,0,1-6.048,11.638H62.928A11.911,11.911,0,0,0,65.357,69.8H73.2a1.741,1.741,0,0,0,1.352-2.843,1.282,1.282,0,0,0-.1-.108,1.729,1.729,0,0,0-1.256-.538H65.357A11.911,11.911,0,0,0,63.4,61.32,12.181,12.181,0,0,0,62.337,60H73.863a1.08,1.08,0,1,0,0-2.156H47.843a1.729,1.729,0,0,0-.865.231,1.4,1.4,0,0,0-.177.115,1.725,1.725,0,0,0-.7,1.391,1.629,1.629,0,0,0,.05.411,1.741,1.741,0,0,0,1.694,1.329h7.181a7.392,7.392,0,0,1,6.574,4.995c.073.211.134.426.188.645a7.2,7.2,0,0,1,.2,1.422,7.011,7.011,0,0,1-.073.768,6.349,6.349,0,0,1-.127.665,7.4,7.4,0,0,1-7.181,5.648H34.492a3.156,3.156,0,0,1,0-6.313H54.606a1.08,1.08,0,0,0,0-2.156v-.023H47.425a.661.661,0,0,1-.123,0,7.243,7.243,0,0,1-2.478-.626,7.392,7.392,0,0,1,3.02-14.136H73.2a7.389,7.389,0,0,1,6.04,11.619Z" transform="translate(-26.012 -29.82)"/></g></g></svg>