<svg xmlns="http://www.w3.org/2000/svg" width="189.066" height="67.633" viewBox="0 0 189.066 67.633"><defs><style>.a,.b{fill:#14aeb8;}.a{font-size:20px;font-family:Poppins-Bold, Poppins;font-weight:700;}.c{opacity:0.2;}.d{fill:#fff;}.e{fill:#016263;}</style></defs><g transform="translate(-147 -17.782)"><text class="a" transform="translate(219.066 58.209)"><tspan x="0" y="0">Skills2Bank</tspan></text><g transform="translate(147 17.782)"><path class="b" d="M77.451,55.732V26.915A5,5,0,0,0,74.973,22.6L50,8.188a5,5,0,0,0-4.995,0L20.047,22.6a5,5,0,0,0-2.5,4.319V55.732a5,5,0,0,0,2.5,4.323L45.022,74.466a5,5,0,0,0,4.995,0l24.956-14.4A5,5,0,0,0,77.451,55.732Z" transform="translate(-17.515 -7.518)"/><g class="c" transform="translate(0 0)"><path class="d" d="M74.864,22.576,49.889,8.168a5,5,0,0,0-4.995,0L19.973,22.576A5,5,0,0,0,17.46,26.9v.384a5,5,0,0,1,2.513-4.326L44.948,8.552a5,5,0,0,1,4.995,0L74.917,22.96a5,5,0,0,1,2.444,4.326V26.9a5,5,0,0,0-2.5-4.327Z" transform="translate(-17.46 -7.498)"/></g><g class="c" transform="translate(0.035 47.837)"><path class="e" d="M20.047,136.714l24.975,14.412a5,5,0,0,0,4.995,0l24.956-14.412a5,5,0,0,0,2.5-4.323v-.384a5,5,0,0,1-2.5,4.323L50,150.743a5,5,0,0,1-4.995,0L20.047,136.33a5,5,0,0,1-2.5-4.33v.384a5,5,0,0,0,2.5,4.33Z" transform="translate(-17.55 -132)"/></g><path class="d" d="M79.243,63.829a7.393,7.393,0,0,1-6.048,11.638H62.928A11.911,11.911,0,0,0,65.357,69.8H73.2a1.741,1.741,0,0,0,1.352-2.843,1.282,1.282,0,0,0-.1-.108,1.729,1.729,0,0,0-1.256-.538H65.357A11.911,11.911,0,0,0,63.4,61.32,12.181,12.181,0,0,0,62.337,60H73.863a1.08,1.08,0,1,0,0-2.156H47.843a1.729,1.729,0,0,0-.865.231,1.4,1.4,0,0,0-.177.115,1.725,1.725,0,0,0-.7,1.391,1.629,1.629,0,0,0,.05.411,1.741,1.741,0,0,0,1.694,1.329h7.181a7.392,7.392,0,0,1,6.574,4.995c.073.211.134.426.188.645a7.2,7.2,0,0,1,.2,1.422,7.011,7.011,0,0,1-.073.768,6.349,6.349,0,0,1-.127.665,7.4,7.4,0,0,1-7.181,5.648H34.492a3.156,3.156,0,0,1,0-6.313H54.606a1.08,1.08,0,0,0,0-2.156v-.023H47.425a.661.661,0,0,1-.123,0,7.243,7.243,0,0,1-2.478-.626,7.392,7.392,0,0,1,3.02-14.136H73.2a7.389,7.389,0,0,1,6.04,11.619Z" transform="translate(-26.012 -29.82)"/></g></g></svg>