<svg xmlns="http://www.w3.org/2000/svg" width="222.418" height="77.349" viewBox="0 0 222.418 77.349"><defs><style>.a,.b{fill:#fff;}.a{font-size:24px;font-family:Poppins-Bold, Poppins;font-weight:700;}.c{opacity:0.2;}.d{fill:#016263;}.e{fill:#14aeb8;}</style></defs><g transform="translate(-147 -10342)"><text class="a" transform="translate(229.418 10389)"><tspan x="0" y="0">Skills2Bank</tspan></text><g transform="translate(147 10342)"><path class="b" d="M86.056,62.658V29.7a5.712,5.712,0,0,0-2.834-4.939L54.659,8.284a5.712,5.712,0,0,0-5.713,0L20.406,24.762A5.713,5.713,0,0,0,17.55,29.7V62.658A5.713,5.713,0,0,0,20.406,67.6L48.969,84.084a5.713,5.713,0,0,0,5.713,0L83.222,67.61A5.712,5.712,0,0,0,86.056,62.658Z" transform="translate(-17.51 -7.518)"/><g class="c" transform="translate(0 0)"><path class="b" d="M83.11,24.742,54.547,8.264a5.713,5.713,0,0,0-5.713,0l-28.5,16.478A5.713,5.713,0,0,0,17.46,29.69v.439a5.713,5.713,0,0,1,2.874-4.948L48.9,8.7a5.713,5.713,0,0,1,5.713,0L83.171,25.181a5.712,5.712,0,0,1,2.795,4.948V29.69a5.713,5.713,0,0,0-2.857-4.948Z" transform="translate(-17.46 -7.498)"/></g><g class="c" transform="translate(0.04 54.709)"><path class="d" d="M20.406,137.392l28.563,16.483a5.713,5.713,0,0,0,5.713,0l28.541-16.483a5.712,5.712,0,0,0,2.856-4.943v-.439a5.713,5.713,0,0,1-2.856,4.944L54.659,153.435a5.712,5.712,0,0,1-5.712,0L20.406,136.952A5.712,5.712,0,0,1,17.55,132v.439a5.712,5.712,0,0,0,2.856,4.952Z" transform="translate(-17.55 -132)"/></g><path class="e" d="M86.123,65.5a8.455,8.455,0,0,1-6.917,13.31H67.465a13.622,13.622,0,0,0,2.777-6.477h8.969a1.991,1.991,0,0,0,1.547-3.252,1.463,1.463,0,0,0-.11-.123,1.977,1.977,0,0,0-1.437-.615H70.242a13.622,13.622,0,0,0-2.237-5.713,13.931,13.931,0,0,0-1.217-1.512H79.971a1.235,1.235,0,1,0,0-2.465H50.213a1.977,1.977,0,0,0-.989.264,1.6,1.6,0,0,0-.2.132,1.973,1.973,0,0,0-.8,1.591,1.863,1.863,0,0,0,.057.47,1.991,1.991,0,0,0,1.938,1.52h8.213a8.454,8.454,0,0,1,7.519,5.713c.084.242.154.488.215.738a8.239,8.239,0,0,1,.229,1.626,8.019,8.019,0,0,1-.084.879,7.26,7.26,0,0,1-.145.76,8.459,8.459,0,0,1-8.213,6.46H34.943a3.61,3.61,0,0,1,0-7.22h23a1.235,1.235,0,0,0,0-2.465v-.026H49.734a.756.756,0,0,1-.141,0,8.283,8.283,0,0,1-2.834-.716A8.455,8.455,0,0,1,50.213,52.21h29A8.45,8.45,0,0,1,86.123,65.5Z" transform="translate(-25.245 -26.603)"/></g></g></svg>