<svg xmlns="http://www.w3.org/2000/svg" width="221.786" height="77.349" viewBox="0 0 221.786 77.349"><defs><style>.a{fill:#fff;}.b{opacity:0.2;}.c{fill:#016263;}.d{fill:#14aeb8;}</style></defs><g transform="translate(-147 -10342)"><path class="a" d="M13.608-4.776A4.678,4.678,0,0,1,12.924-2.3,4.824,4.824,0,0,1,10.908-.5,7.1,7.1,0,0,1,7.68.168a7.6,7.6,0,0,1-4.7-1.392A5.044,5.044,0,0,1,.96-5.112H5.328A2.305,2.305,0,0,0,6.012-3.6a2.1,2.1,0,0,0,1.5.552A1.741,1.741,0,0,0,8.76-3.48a1.512,1.512,0,0,0,.456-1.152,1.487,1.487,0,0,0-.42-1.08A3.293,3.293,0,0,0,7.752-6.42Q7.128-6.7,6.024-7.08A21.215,21.215,0,0,1,3.4-8.148,4.84,4.84,0,0,1,1.644-9.684a4.445,4.445,0,0,1-.732-2.652,4.465,4.465,0,0,1,.768-2.616A4.882,4.882,0,0,1,3.8-16.644a7.747,7.747,0,0,1,3.108-.588,6.968,6.968,0,0,1,4.5,1.344,5.128,5.128,0,0,1,1.884,3.7H8.856a2.277,2.277,0,0,0-.612-1.332,1.8,1.8,0,0,0-1.332-.492,1.716,1.716,0,0,0-1.164.384A1.41,1.41,0,0,0,5.3-12.5a1.432,1.432,0,0,0,.4,1.02,3.018,3.018,0,0,0,1,.684q.6.264,1.728.672a18.994,18.994,0,0,1,2.664,1.092,5.1,5.1,0,0,1,1.776,1.572A4.491,4.491,0,0,1,13.608-4.776ZM24,0,19.992-5.688V0h-4.1V-17.76h4.1v9.744L24-13.392h4.824l-5.4,6.7L28.944,0Zm6.048-17.16a2,2,0,0,1,.672-1.548A2.536,2.536,0,0,1,32.5-19.32a2.536,2.536,0,0,1,1.776.612,2,2,0,0,1,.672,1.548,1.977,1.977,0,0,1-.672,1.524,2.536,2.536,0,0,1-1.776.612,2.536,2.536,0,0,1-1.776-.612A1.977,1.977,0,0,1,30.048-17.16Zm4.488,3.768V0h-4.1V-13.392Zm6.936-4.368V0h-4.1V-17.76Zm6.936,0V0H44.3V-17.76Zm7.7,4.2a6.145,6.145,0,0,1,4.068,1.272,5.527,5.527,0,0,1,1.908,3.36h-3.84a2.127,2.127,0,0,0-.756-1.284,2.3,2.3,0,0,0-1.476-.468,1.614,1.614,0,0,0-1.056.3,1.047,1.047,0,0,0-.36.852,1,1,0,0,0,.66.936,10.524,10.524,0,0,0,2.076.624,20.616,20.616,0,0,1,2.52.732,4.157,4.157,0,0,1,1.7,1.212,3.349,3.349,0,0,1,.72,2.256,3.46,3.46,0,0,1-.624,2.04,4.108,4.108,0,0,1-1.8,1.392,7.034,7.034,0,0,1-2.784.5,7.169,7.169,0,0,1-4.344-1.2,5.063,5.063,0,0,1-1.992-3.432H54.7a1.782,1.782,0,0,0,.732,1.32,2.756,2.756,0,0,0,1.644.456,1.531,1.531,0,0,0,1.056-.324,1.091,1.091,0,0,0,.36-.852,1.024,1.024,0,0,0-.66-1A12.135,12.135,0,0,0,55.68-5.5a17.176,17.176,0,0,1-2.448-.672,4.041,4.041,0,0,1-1.656-1.164,3.243,3.243,0,0,1-.7-2.2,3.584,3.584,0,0,1,1.368-2.916A5.961,5.961,0,0,1,56.112-13.56Zm7.848,10.3q7.632-5.448,7.632-8.664,0-1.968-1.7-1.968a1.561,1.561,0,0,0-1.4.672,4.12,4.12,0,0,0-.492,2.088H63.984a6.38,6.38,0,0,1,1.872-4.656,6.272,6.272,0,0,1,4.368-1.56,5.679,5.679,0,0,1,4.164,1.392,4.879,4.879,0,0,1,1.4,3.624A7.679,7.679,0,0,1,73.9-7.5a17.68,17.68,0,0,1-4.536,4h6.7V-.192H63.96ZM88.32-8.736a4.249,4.249,0,0,1,2.436,1.488,4.073,4.073,0,0,1,.9,2.616A4.215,4.215,0,0,1,90.2-1.224,6.291,6.291,0,0,1,86.04,0h-7.9V-16.968h7.7a6.29,6.29,0,0,1,4.008,1.128,3.873,3.873,0,0,1,1.416,3.216,3.962,3.962,0,0,1-.816,2.556A3.761,3.761,0,0,1,88.32-8.736Zm-6.072-1.3h2.688q2.136,0,2.136-1.824T84.888-13.68h-2.64Zm2.928,6.7q2.28,0,2.28-1.872a1.783,1.783,0,0,0-.6-1.428,2.536,2.536,0,0,0-1.7-.516h-2.9v3.816ZM98.9-13.56a4.848,4.848,0,0,1,2.64.7,4.184,4.184,0,0,1,1.632,1.9v-2.424h4.08V0h-4.08V-2.424a4.184,4.184,0,0,1-1.632,1.9,4.848,4.848,0,0,1-2.64.7A5.424,5.424,0,0,1,95.94-.66a5.665,5.665,0,0,1-2.064-2.388A8.276,8.276,0,0,1,93.12-6.7a8.257,8.257,0,0,1,.756-3.66,5.678,5.678,0,0,1,2.064-2.376A5.424,5.424,0,0,1,98.9-13.56Zm1.32,3.6A2.765,2.765,0,0,0,98.1-9.1a3.387,3.387,0,0,0-.8,2.4,3.387,3.387,0,0,0,.8,2.4,2.765,2.765,0,0,0,2.124.864,2.775,2.775,0,0,0,2.124-.888,3.344,3.344,0,0,0,.828-2.376,3.335,3.335,0,0,0-.828-2.388A2.793,2.793,0,0,0,100.224-9.96Zm18.36-3.576A4.636,4.636,0,0,1,122.244-12,6.161,6.161,0,0,1,123.6-7.776V0h-4.1V-7.3a2.952,2.952,0,0,0-.708-2.1,2.459,2.459,0,0,0-1.884-.756,2.565,2.565,0,0,0-1.98.792,3.2,3.2,0,0,0-.732,2.256V0h-4.1V-13.392h4.1v2.448a4.418,4.418,0,0,1,1.716-1.9A5.033,5.033,0,0,1,118.584-13.536ZM134.424,0l-4.008-5.688V0h-4.1V-17.76h4.1v9.744l4.008-5.376h4.824l-5.4,6.7,5.52,6.7Z" transform="translate(229.418 10389)"/><g transform="translate(147 10342)"><path class="a" d="M86.056,62.658V29.7a5.712,5.712,0,0,0-2.834-4.939L54.659,8.284a5.712,5.712,0,0,0-5.713,0L20.406,24.762A5.713,5.713,0,0,0,17.55,29.7V62.658A5.713,5.713,0,0,0,20.406,67.6L48.969,84.084a5.713,5.713,0,0,0,5.713,0L83.222,67.61A5.712,5.712,0,0,0,86.056,62.658Z" transform="translate(-17.51 -7.518)"/><g class="b" transform="translate(0 0)"><path class="a" d="M83.11,24.742,54.547,8.264a5.713,5.713,0,0,0-5.713,0l-28.5,16.478A5.713,5.713,0,0,0,17.46,29.69v.439a5.713,5.713,0,0,1,2.874-4.948L48.9,8.7a5.713,5.713,0,0,1,5.713,0L83.171,25.181a5.712,5.712,0,0,1,2.795,4.948V29.69a5.713,5.713,0,0,0-2.857-4.948Z" transform="translate(-17.46 -7.498)"/></g><g class="b" transform="translate(0.04 54.709)"><path class="c" d="M20.406,137.392l28.563,16.483a5.713,5.713,0,0,0,5.713,0l28.541-16.483a5.712,5.712,0,0,0,2.856-4.943v-.439a5.713,5.713,0,0,1-2.856,4.944L54.659,153.435a5.712,5.712,0,0,1-5.712,0L20.406,136.952A5.712,5.712,0,0,1,17.55,132v.439a5.712,5.712,0,0,0,2.856,4.952Z" transform="translate(-17.55 -132)"/></g><path class="d" d="M86.123,65.5a8.455,8.455,0,0,1-6.917,13.31H67.465a13.622,13.622,0,0,0,2.777-6.477h8.969a1.991,1.991,0,0,0,1.547-3.252,1.463,1.463,0,0,0-.11-.123,1.977,1.977,0,0,0-1.437-.615H70.242a13.622,13.622,0,0,0-2.237-5.713,13.931,13.931,0,0,0-1.217-1.512H79.971a1.235,1.235,0,1,0,0-2.465H50.213a1.977,1.977,0,0,0-.989.264,1.6,1.6,0,0,0-.2.132,1.973,1.973,0,0,0-.8,1.591,1.863,1.863,0,0,0,.057.47,1.991,1.991,0,0,0,1.938,1.52h8.213a8.454,8.454,0,0,1,7.519,5.713c.084.242.154.488.215.738a8.239,8.239,0,0,1,.229,1.626,8.019,8.019,0,0,1-.084.879,7.26,7.26,0,0,1-.145.76,8.459,8.459,0,0,1-8.213,6.46H34.943a3.61,3.61,0,0,1,0-7.22h23a1.235,1.235,0,0,0,0-2.465v-.026H49.734a.756.756,0,0,1-.141,0,8.283,8.283,0,0,1-2.834-.716A8.455,8.455,0,0,1,50.213,52.21h29A8.45,8.45,0,0,1,86.123,65.5Z" transform="translate(-25.245 -26.603)"/></g></g></svg>